<?xml version="1.0" encoding="UTF-8" standalone="no"?>
<svg
   xmlns:dc="http://purl.org/dc/elements/1.1/"
   xmlns:cc="http://creativecommons.org/ns#"
   xmlns:rdf="http://www.w3.org/1999/02/22-rdf-syntax-ns#"
   xmlns:svg="http://www.w3.org/2000/svg"
   xmlns="http://www.w3.org/2000/svg"
   xmlns:xlink="http://www.w3.org/1999/xlink"
   xml:space="preserve"
   style="enable-background:new 0 0 1677.8 569;"
   viewBox="0 0 1677.8 569"
   y="0px"
   x="0px"
   id="Layer_1"
   version="1.1"><metadata
   id="metadata1909"><rdf:RDF><cc:Work
       rdf:about=""><dc:format>image/svg+xml</dc:format><dc:type
         rdf:resource="http://purl.org/dc/dcmitype/StillImage" /><dc:title></dc:title></cc:Work></rdf:RDF></metadata><defs
   id="defs1907">
	
	

		
		
	
			
			
		
				
				
				
			
					
					
					
					
						
					
				
					
					
					
					
					
				
					
					
					
					
					
						
				</defs>
<style
   id="style1382"
   type="text/css">
	.st0{fill:#465D63;}
	.st1{fill:#EE7914;}
	.st2{fill:#3C4E52;}
	.st3{clip-path:url(#SVGID_2_);}
	.st4{fill:#5EAAAA;}
	.st5{fill:#EFA21B;}
	.st6{fill:#EDB890;}
	.st7{fill:#E2AB86;}
	.st8{fill:#9A593D;}
	.st9{fill:#D89D75;}
	.st10{fill:#FFFFFF;}
	.st11{fill:#E5E1D8;}
	.st12{fill:#D6D2C9;}
	.st13{fill:#AF3922;}
	.st14{fill:#FFC248;}
	.st15{fill:#D55434;}
	.st16{fill:#582A2C;}
	.st17{fill:#FFBC00;}
	.st18{fill:#FFDC83;}
	.st19{fill:#AD6B53;}
</style>
<g
   id="g1388">
	<g
   id="g1386">
		<path
   id="path1384"
   d="M777.8,333.9l-66.5-197.1h-12.2l-79,204.8c-6.1,15.9-12.9,16.5-32.9,16.5v3.4h62.4v-3.4h-32.2l31.9-80.3h65.8    l25.1,80.3h-26.8v3.4h99.7v-3.4C790,358.2,786,358.2,777.8,333.9z M650,274.5l33.9-89.8l29.8,89.8H650z M911.5,233    c-11.5,0-25.4,8.4-39.3,24v-20.6h-57v3.4h8.1c6.8,0,8.1,3.4,8.1,14.9v94.2c0,8.1-2,9.4-8.1,9.4h-8.1v3.4h76v-3.4h-19v-96.5    c9.2-11.1,23.1-21.6,30.2-21.6c3.4,0,4.1,0.7,6.1,1.3c-4.1,1.7-7.8,9.5-7.8,14.2c0,9.5,9.2,15.9,17.3,15.9    c8.5,0,17.3-7.1,17.3-17.5C935.2,242.1,926.1,233,911.5,233z M993.2,236.3h-57v3.4h7.5c9.2,0,8.8,6.1,8.8,14.9v94.2    c0,8.1-1.7,9.4-7.8,9.4h-8.5v3.4h71.9v-3.4h-14.9V236.3z M974.2,200.2c12.5,0,22.7-10.1,22.7-22.6c0-12.8-10.2-22.9-22.7-22.9    c-12.9,0-23.1,10.1-23.1,22.9C951.2,190.1,961.4,200.2,974.2,200.2z M1083.1,288.6c-10.5-9.4-27.5-21.3-27.5-32.7    c0-10.8,7.5-20.2,22.7-20.2c17.6,0,23.1,17.5,23.4,29h3.7v-23.3c-4.4-3.7-19.7-9.1-36.3-9.1c-32.6,0-45.4,17.5-45.4,37.8    c0,14.2,11.5,24,25.8,36.1c10.9,9.1,25.4,19.6,25.4,30.7c0,15.9-7.8,25-22,25c-12.5,0-28.8-10.8-29.8-32.7h-3.7v28    c0,0,15.9,8.4,46.1,8.4c22.7,0,43.4-12.5,43.7-36.4C1108.9,310.9,1097.7,301.8,1083.1,288.6z M1188.9,357.5    c-13.6,0-15.3-8.4-15.3-24.6l0.7-85c0-5.1,2.7-8.1,7.1-8.1h24.8v-3.4h-31.9v-37.5l-40.7,8.4l-0.7,124.5c0,21.3,6.8,32.4,36.6,32.4    c22.7,0,36.6-8.4,39.7-12.8l-2-1.7C1203.5,353.4,1196.7,357.5,1188.9,357.5z M1290.7,232.3c-50.2,0-74.9,32.7-74.9,67.8    c0,37.1,23.1,65.5,72.6,65.5c56,0,78.7-34.1,78.7-66.8C1367,264.3,1350,232.3,1290.7,232.3z M1289.7,362.5    c-17.6,0-31.2-25-31.2-64.1c0-28.7,6.1-63.1,32.6-63.1c23.1,0,33.6,26.7,33.6,63.8C1324.6,331.2,1318.8,362.5,1289.7,362.5z     M1445.4,357.5c-13.6,0-15.3-8.4-15.3-24.6l0.7-85c0-5.1,2.7-8.1,7.1-8.1h24.8v-3.4h-31.9v-37.5l-40.7,8.4l-0.7,124.5    c0,21.3,6.8,32.4,36.6,32.4c22.7,0,36.6-8.4,39.7-12.8l-2-1.7C1459.9,353.4,1453.2,357.5,1445.4,357.5z M1526.1,129.4h-57v3.4h7.8    c7.8,0,8.5,3.7,8.5,16.2v201.1c0,7.1-2,8.1-7.8,8.1h-8.5v3.4h71.9v-3.4h-14.9V129.4z M1627.1,358.5c-32.9,0-35.3-43.9-35.3-67.5    v-5.4h84.1c0-8.4-2-16.9-5.4-25c-7.5-18.9-28.1-27.7-51.2-27.7c-44.4,0-69.2,30.4-69.2,65.1c0,38.5,31.5,66.8,71.6,66.8    c23.4,0,43.4-12.2,52.6-28l-2.4-1.7C1662.4,349.1,1644.8,358.5,1627.1,358.5z M1617.6,236c17.3,0,18.7,28.3,20.3,46.2h-46.1    C1592.9,255.9,1597.3,236,1617.6,236z"
   class="st0" />
	</g>
</g>
<g
   id="g1410">
			<path
   style="fill:#465d63"
   id="path1390"
   d="m 1658.4,399 c 1.6,0 1.9,0.5 1.9,1.9 v 11 h 15.6 c 1.3,0 1.9,0.6 1.9,1.9 v 2.8 c 0,1.3 -0.6,1.9 -1.9,1.9 h -15.6 v 28 c 0,6.2 1.1,10.3 3.2,12.3 2.1,2 6.1,3 12.2,3 1.3,0 1.9,0.6 1.9,2 v 2.9 c 0,1.4 -0.5,1.9 -1.9,1.9 -8.4,0.1 -14.2,-1.3 -17.5,-4.5 -3.3,-3.1 -5.1,-8.9 -5.1,-17.4 v -28.2 h -10.2 c -1.3,0 -1.9,-0.6 -1.9,-1.9 v -2.8 c 0,-1.3 0.6,-1.9 1.9,-1.9 h 10.2 v -11 c 0,-1.3 0.6,-1.9 1.9,-1.9 z"
   class="st0" />
			<g
   id="g1408">
				<path
   style="fill:#465d63"
   id="path1392"
   d="m 1313,410.4 c -4.6,0 -10.3,1.1 -17,3.3 v -24.1 c 0,-1.3 -0.6,-1.9 -1.9,-1.9 h -3.4 c -1.3,0 -1.9,0.6 -1.9,1.9 v 70.1 c 0,3.4 0.8,4.3 4.2,5.9 4.7,2.1 10.8,3.2 18.2,3.2 15.4,0 23.1,-7.3 23.1,-22.1 v -15.3 c -0.1,-14 -7.2,-21 -21.3,-21 z m 14,36.2 c 0,10.4 -5.5,15.6 -16.5,15.6 -4.8,0 -9,-0.8 -12.6,-2.2 -1.7,-0.8 -1.9,-1.1 -1.9,-2.8 v -36.8 c 5.5,-2.3 10.9,-3.4 16,-3.4 10,0 15,4.8 15,14.6 z"
   class="st0" />
				<path
   style="fill:#465d63"
   id="path1394"
   d="m 1368.6,410.4 c -14.7,0 -23.6,7.4 -23.6,19.8 v 18.9 c 0,12.2 8.9,19.7 23.6,19.7 14.7,0 23.8,-7.3 23.8,-19.7 v -18.9 c -0.1,-12.4 -9.1,-19.8 -23.8,-19.8 z m 16.4,38.7 c 0,8.2 -6.2,13.1 -16.5,13.1 -9.9,0 -16.4,-4.9 -16.4,-13.1 v -18.9 c 0,-8.2 6.3,-13.2 16.4,-13.2 10.2,0 16.5,5.1 16.5,13.2 z"
   class="st0" />
				<path
   style="fill:#465d63"
   id="path1396"
   d="m 1447.9,412 h -3.4 c -1.3,0 -1.9,0.6 -1.9,1.9 v 43 c 0,1.4 -0.6,2.5 -1.9,3 -4,1.6 -8.6,2.4 -14,2.4 -10,0 -15.1,-4.9 -15.1,-14.7 V 414 c 0,-1.4 -0.3,-1.9 -1.9,-1.9 h -3.3 c -1.4,0 -1.9,0.5 -1.9,1.9 v 33.9 c 0,14 7.1,21 21.3,21 7.6,0 14.4,-1.2 20.1,-3.6 3.3,-1.4 4.1,-2.6 4.1,-5.9 V 414 c -0.2,-1.4 -0.8,-2 -2.1,-2 z"
   class="st0" />
				<path
   style="fill:#465d63"
   id="path1398"
   d="m 1575.1,412 h -3.4 c -1.3,0 -1.9,0.6 -1.9,1.9 v 43 c 0,1.4 -0.6,2.5 -1.9,3 -4,1.6 -8.6,2.4 -14,2.4 -10,0 -15.1,-4.9 -15.1,-14.7 V 414 c 0,-1.4 -0.3,-1.9 -1.9,-1.9 h -3.3 c -1.4,0 -1.9,0.5 -1.9,1.9 v 33.9 c 0,14 7.1,21 21.3,21 7.6,0 14.4,-1.2 20.1,-3.6 3.3,-1.4 4.1,-2.6 4.1,-5.9 V 414 c -0.2,-1.4 -0.8,-2 -2.1,-2 z"
   class="st0" />
				<path
   style="fill:#465d63"
   id="path1400"
   d="m 1633.4,441.6 c 2.2,0 3.2,-1 3.2,-3 v -5.9 c 0,-13.4 -8.3,-22.3 -23.9,-22.3 -15.5,0 -23.8,8.4 -23.8,22.7 v 14 c 0,13.5 7.7,21.8 23.3,21.8 11.1,0 18.7,-3.9 23,-11.6 0.9,-1.4 0.6,-2.4 -0.8,-3.1 l -2.3,-1.2 c -1.2,-0.6 -2.3,-0.4 -3.1,0.8 -3.3,5.9 -8.9,8.9 -16.9,8.9 -10.4,0 -16.1,-5.4 -16.1,-14.7 v -6.2 h 37.4 z m -37.2,-9.4 c 0,-9.8 5.8,-15.6 16.6,-15.6 10.9,0 16.7,5.8 16.7,15.6 v 3.8 h -33.3 z"
   class="st0" />
				<g
   id="g1404">
					<path
   style="fill:#465d63"
   id="path1402"
   d="m 1522.3,463.8 c -0.2,-0.4 -0.6,-0.7 -1.1,-0.8 h -15.8 v -0.2 c 8.4,-3.7 13.6,-13.7 13.6,-23.5 0,-16.7 -12.4,-29.5 -28.8,-29.5 -16.4,0 -28.8,12.8 -28.8,29.5 0,16.7 12.4,29.5 28.8,29.5 h 30.9 c 0.6,-0.1 1,-0.4 1.2,-0.8 0.1,-0.3 0.2,-0.6 0.2,-0.9 v -2.5 c 0,-0.2 -0.1,-0.6 -0.2,-0.8 z m -53.8,-24.4 c 0,-12.9 9.1,-23.2 21.7,-23.2 12.6,0 21.6,10.3 21.6,23.2 0,13 -9.3,23.2 -21.6,23.2 -12.3,-0.1 -21.7,-10.2 -21.7,-23.2 z"
   class="st0" />
				</g>
				<polygon
   style="fill:#465d63"
   id="polygon1406"
   points="1505.4,463 1521.1,463 "
   class="st0" />
			</g>
		</g><path
   class="st1"
   d="m 1227.5,405.4 c 1.1,3.4 0.4,5.9 -1.2,8.8 -3.1,-1.4 -5.3,-2.8 -6.4,-6.2 -1.1,-3.4 -1,-8.1 0.7,-11.1 3,1.4 5.7,5.1 6.9,8.5 z"
   id="path1412"
   style="fill:#ee7914" /><path
   class="st1"
   d="m 1217.6,411.5 c 3.6,0 5.7,1.4 8,3.9 -2.2,2.5 -4.3,4.2 -7.9,4.2 -3.6,0 -8,-1.6 -10.3,-4.1 2.2,-2.5 6.6,-4 10.2,-4 z"
   id="path1414"
   style="fill:#ee7914" /><path
   class="st1"
   d="m 1220.3,422.8 c 1.1,-3.4 3.1,-5 6.1,-6.4 1.7,2.9 2.6,5.4 1.5,8.8 -1.1,3.4 -4,7.2 -7,8.6 -1.6,-2.9 -1.7,-7.5 -0.6,-11 z"
   id="path1416"
   style="fill:#ee7914" /><path
   class="st1"
   d="m 1231.9,423.7 c -2.9,-2.1 -3.8,-4.5 -4.2,-7.8 3.3,-0.7 5.9,-0.8 8.9,1.3 2.9,2.1 5.6,6 6,9.3 -3.3,0.7 -7.8,-0.7 -10.7,-2.8 z"
   id="path1418"
   style="fill:#ee7914" /><path
   class="st1"
   d="m 1257.3,389.8 c 0.5,3.6 -0.7,5.8 -2.8,8.4 -2.8,-1.9 -4.7,-3.7 -5.2,-7.3 -0.5,-3.6 0.6,-8.2 2.7,-10.7 2.8,1.8 4.8,6 5.3,9.6 z"
   id="path1424"
   style="fill:#ee7914" /><path
   class="st1"
   d="m 1246.4,393.9 c 3.5,0.6 5.3,2.4 7.1,5.3 -2.7,2 -5,3.3 -8.6,2.6 -3.6,-0.6 -7.6,-3.1 -9.4,-5.9 2.8,-2 7.4,-2.6 10.9,-2 z"
   id="path1426"
   style="fill:#ee7914" /><path
   class="st1"
   d="m 1247,405.5 c 1.7,-3.2 4,-4.3 7.2,-5.1 1.1,3.2 1.6,5.8 -0.1,9 -1.7,3.2 -5.3,6.3 -8.5,7.1 -1.1,-3.2 -0.3,-7.8 1.4,-11 z"
   id="path1428"
   style="fill:#ee7914" /><path
   class="st1"
   d="m 1258.2,408.5 c -2.5,-2.6 -2.9,-5.1 -2.7,-8.5 3.3,-0.1 6,0.3 8.5,2.9 2.5,2.6 4.3,7 4.1,10.3 -3.3,0.2 -7.4,-2 -9.9,-4.7 z"
   id="path1430"
   style="fill:#ee7914" /><path
   class="st1"
   d="m 1264.6,398.8 c -3.3,1.6 -5.8,1.2 -8.9,-0.1 1,-3.2 2.1,-5.6 5.4,-7.2 3.3,-1.6 8,-2 11.1,-0.7 -1,3.2 -4.4,6.4 -7.6,8 z"
   id="path1432"
   style="fill:#ee7914" /><path
   class="st1"
   d="m 1264.1,424.5 c -1.5,3.3 -3.6,4.6 -6.8,5.7 -1.3,-3.1 -2,-5.6 -0.6,-8.9 1.5,-3.3 4.8,-6.7 8,-7.7 1.3,3 0.9,7.6 -0.6,10.9 z"
   id="path1436"
   style="fill:#ee7914" /><path
   class="st1"
   d="m 1252.7,422.3 c 2.7,2.4 3.3,4.9 3.3,8.2 -3.3,0.3 -6,0.2 -8.7,-2.2 -2.7,-2.4 -4.9,-6.6 -4.9,-9.9 3.3,-0.4 7.6,1.5 10.3,3.9 z"
   id="path1438"
   style="fill:#ee7914" /><path
   class="st1"
   d="m 1247.1,432.5 c 3.1,-1.8 5.7,-1.6 8.8,-0.6 -0.7,3.3 -1.7,5.8 -4.8,7.6 -3.1,1.8 -7.8,2.6 -11,1.6 0.8,-3.3 3.9,-6.8 7,-8.6 z"
   id="path1440"
   style="fill:#ee7914" /><path
   class="st1"
   d="m 1265.6,436 c -3.6,-0.4 -5.5,-2 -7.5,-4.7 2.5,-2.2 4.7,-3.7 8.3,-3.3 3.6,0.4 7.8,2.5 9.8,5.2 -2.5,2.2 -7,3.2 -10.6,2.8 z"
   id="path1444"
   style="fill:#ee7914" /><g
   id="g1452">
				<path
   class="st1"
   d="m 1243.8,476 c -0.1,0 -0.3,0 -0.5,0 -2,-0.2 -3,-1.2 -3.5,-2.1 -1.7,-3.1 0.2,-9.3 3.3,-16.2 -1.2,-3.3 -2.7,-7.2 -4.8,-11.8 -0.3,-0.7 -0.5,-1.2 -0.6,-1.5 -2.7,-6.4 -5.5,-12.6 -8.3,-18.6 -0.2,-0.4 0,-1 0.4,-1.2 0.4,-0.2 1,0 1.2,0.4 2.9,6 5.7,12.3 8.4,18.7 0.1,0.3 0.3,0.8 0.6,1.4 1.4,3.2 2.9,6.7 4.2,10.2 1.9,-3.9 4.1,-8 6.2,-11.7 0.4,-0.8 0.8,-1.4 1,-1.8 0.2,-0.4 0.8,-0.6 1.2,-0.4 0.4,0.2 0.6,0.8 0.4,1.2 -0.2,0.4 -0.6,1 -1,1.8 -2.9,5.1 -5.2,9.5 -6.9,13.3 2.5,7.1 3.9,13.8 1.9,16.7 -0.5,0.8 -1.5,1.6 -3.2,1.6 z m 0.2,-15.8 c -2.8,6.5 -3.7,10.8 -2.6,12.8 0.4,0.7 1,1.1 2,1.2 1.3,0.1 1.8,-0.4 2.1,-0.8 1,-1.3 1.2,-4.8 -1.5,-13.2 z"
   id="path1450"
   style="fill:#ee7914" />
			</g><g
   id="g1462">
		<path
   class="st0"
   d="m 1136.8,424 c 0,-1.3 0.6,-1.9 1.9,-1.9 h 12.3 c 6.8,0 11.7,3.8 11.7,10.4 0,4 -1.9,7.1 -5,8.7 v 0.1 c 4.3,1.3 6.7,5.3 6.7,9.8 0,7.7 -5.9,11.6 -13.1,11.6 h -12.6 c -1.3,0 -1.9,-0.6 -1.9,-1.9 z m 14.2,15.2 c 3.7,0 6,-2.6 6,-6.2 0,-3.6 -2.2,-6 -6.1,-6 h -8.5 v 12.1 h 8.6 z m 0.6,18.6 c 4.4,0 7,-2.8 7,-6.9 0,-4.1 -2.8,-7 -7,-7 h -9.1 v 13.9 z"
   id="path1458"
   style="fill:#465d63" />
		<path
   class="st0"
   d="m 1178.8,445.5 -12.3,-21.2 c -0.7,-1.3 -0.2,-2.2 1.3,-2.2 h 2.3 c 1,0 1.7,0.4 2.2,1.3 l 6.8,12 c 1.2,2.3 2.5,5.1 2.5,5.1 h 0.1 c 0,0 1.2,-2.8 2.5,-5.1 l 6.8,-12 c 0.5,-0.9 1.2,-1.3 2.2,-1.3 h 2.3 c 1.5,0 2.1,1 1.3,2.2 l -12.3,21.2 v 15.3 c 0,1.3 -0.7,1.9 -1.9,1.9 h -1.9 c -1.2,0 -1.9,-0.6 -1.9,-1.9 z"
   id="path1460"
   style="fill:#465d63" />
	</g>
<g
   id="g1468">
	<path
   id="path1466"
   d="M1633.7,158.2c0-12.4,9.6-22.1,22-22.1c12.4,0,21.8,9.5,21.8,21.8c0,12.4-9.7,22.1-22,22.1   C1643.1,180.1,1633.7,170.6,1633.7,158.2z M1673.1,158.2c0-10.3-7.5-18.1-17.6-18.1c-10.1,0-17.4,7.6-17.4,17.8   c0,10.3,7.5,18.1,17.6,18.1C1665.8,176.1,1673.1,168.5,1673.1,158.2z M1646.9,145.7h9.3c5.8,0,9.3,2.5,9.3,7.8   c0,3.8-1.8,5.8-4.4,6.9l4.7,9.2h-6l-4.2-8.4h-2.9c0,0.5,0,8.4,0,8.4h-5.7V145.7z M1655.9,157c2.7,0,4-1,4-3.2c0-2.1-1.3-3.1-4-3.1   h-3.3v6.3H1655.9z"
   class="st2" />
</g>
<circle
   id="circle1470"
   r="284.5"
   cy="284.5"
   cx="284.5"
   class="st2" />
<g
   id="g1902">
	<defs
   id="defs1473">
		<circle
   r="284.5"
   cy="284.5"
   cx="284.5"
   id="SVGID_1_" />
	</defs>
	<clipPath
   id="SVGID_2_">
		<use
   id="use1475"
   style="overflow:visible;"
   xlink:href="#SVGID_1_" />
	</clipPath>
	<g
   id="g1900"
   clip-path="url(#SVGID_2_)"
   class="st3">
		<path
   id="path1478"
   d="M255.9,804.6c40.6-0.6,133.5-2.6,162.5,9.5c29,12.1-58.8,9.8-89,9.8c-30.3,0.1-101.1,4.1-177.3,2.8    c-156-2.8-98.5-18.3-92.4-20C75.9,802.4,106.1,806.8,255.9,804.6z"
   class="st4" />
		<g
   id="g1898">
			<g
   id="g1752">
				<g
   id="g1566">
					<g
   id="g1492">
						<g
   id="g1488">
							<path
   id="path1480"
   d="M164.9,340.2c0,0,52.8,1.1,91-13.2c0,0,1.7,55.5-27.8,58.2C198.6,387.9,162.4,351.4,164.9,340.2z"
   class="st5" />
							<path
   id="path1482"
   d="M258.9,331.8c-15.5-0.6-20.9-1.9-24-8.7c-1.6-13.8,2.6-17.3,5.1-24.4c0,0-58.4-23-62.1-41.1         c0.9,8.1,14.2,34.9,13.5,59c0,0,0,0,0,0c-0.7,22.8-26.2,27.2-26.2,27.2s6.6,50.6,59.7,49.5         C278.1,392.3,274.4,332.4,258.9,331.8z"
   class="st6" />
							<path
   id="path1484"
   d="M254,384c5.8-20.8,2.4-47.3,1.7-52.3c-0.1,0-0.2,0-0.3,0c-0.9,5.3-1.2,36-29.9,40.6         c-29.4,4.6-54.3-28.4-55.5-29.7c-2.8,0.9-4.7,1.3-4.7,1.3s6.6,50.6,59.7,49.5C237.7,393.1,247.2,389.4,254,384z"
   class="st7" />
							<path
   id="path1486"
   d="M177.9,257.6c-0.2-1.6-0.3-2.5-0.3-2.5C177.6,256,177.8,256.8,177.9,257.6z"
   class="st6" />
						</g>
						<path
   id="path1490"
   d="M191.4,316.6C191.4,316.6,191.4,316.6,191.4,316.6c0.3,6.3,24.7,27.5,58.1,14.6        c-8.5-0.9-12.2-2.9-14.6-8.1c-1.6-13.8,2.6-17.3,5.1-24.4c0,0-58.4-23-62.1-41.1C178.8,265.7,192.1,292.5,191.4,316.6z"
   class="st7" />
					</g>
					<path
   id="path1494"
   d="M268.2,335.1c29.7,9.2,85,13.3,109.3,14.1c7.4-11.8,49.9-63,50.9-76.2c-3.1-2.6-20.2-10.6-7.5-41.2       c3.1-6.1,7.6-0.2,7.6-0.2l35.8,7c-15.4,73.4-63.6,139.2-63.6,139.2c-26.8,10.1-79.1,17-111.8,13.7       C289.7,396.2,263,355.1,268.2,335.1z"
   class="st6" />
					<g
   id="g1498">
						<path
   id="path1496"
   d="M393.7,242.1c0,0,15.1-2,26.6,0C420.3,242.1,406.7,237,393.7,242.1z"
   class="st8" />
					</g>
					<g
   id="g1504">
						<path
   id="path1500"
   d="M377.4,349.2L377.4,349.2C377.4,349.2,377.4,349.2,377.4,349.2C377.4,349.2,377.4,349.2,377.4,349.2z"
   class="st7" />
						<path
   id="path1502"
   d="M390.3,372.2c-0.2-4.7-7.9-15.9-13.1-23c-12.1-0.4-31.5-1.6-51.6-3.8l-1.2,46.5        c27.6-1.4,58.2-7.2,76.5-14.1c0,0,17-14.9,21.8-41.6C411.9,353.9,390.5,377.5,390.3,372.2z"
   class="st7" />
					</g>
					<g
   id="g1564">
						<g
   id="g1514">
							<path
   id="path1506"
   d="M289.4,728.2c-8.1,0.4-16.2,0.8-24.3,1c-0.9,6.6-1.7,12.6-2.4,17.9c-1.3,9.9-1.8,26-1.3,36.1l0.9,18.2         c0,0,106.6,11.1,139.9,0c19.7-6.5-111.4-36.9-111.4-36.9C290,753,289.6,740.9,289.4,728.2z"
   class="st6" />
							<path
   id="path1508"
   d="M400.6,796.1c-6.9,6.3-28.3,1-37.1-2c-1.3-2.5,4.1-9.9,4.1-9.9l-16.1-4.6c-0.1,0-0.3-0.1-0.4-0.1         c0,0-6.2,9.3-13.1,12.8c-6.9,3.5-12,2.7-21,1.1c-18-3-18.3-20.3-19-27.5c-4.4-1.1-7.1-1.7-7.1-1.7         c-0.9-11.4-1.4-23.5-1.5-36.2c-8.1,0.4-16.2,0.8-24.3,1c-0.9,6.6-1.7,12.6-2.4,17.9c-1.3,9.9-1.8,26-1.3,36.1l0.9,18.2         c0,0,106.6,11.1,139.9,0C405.6,800.2,404.6,798.4,400.6,796.1z"
   class="st9" />
							<path
   id="path1510"
   d="M262.4,800l0.7,12.3c0,0,60,6.9,142.4,0l-0.7-13.2c0,0-24.4,3.1-46.1,3.1c0,0,2.2-16.3,9-18         c0,0-8.2-7.1-16.6-4.7c-6.3,1.8-9.9,14.4-12.5,22.7C338.6,802.3,292,804.6,262.4,800z"
   class="st8" />
							<path
   id="path1512"
   d="M260.9,772.8c-1.5,5.5-0.8,10.7,0.7,13.9c3.1,6.5,21.2,19.8,21.2,19.8l14-2.4         C296.9,804.1,277.1,789.4,260.9,772.8z"
   class="st8" />
						</g>
						<g
   id="g1524">
							<path
   id="path1516"
   d="M150.2,728.2c8.1,0.4,16.3,0.8,24.4,1c1.6,6.6,3,12.6,4.3,17.9c2.4,9.9,4.5,26,5.1,36.1l1,18.2         c0,0-65.3,11.1-99.7,0c-3.9-23.3,67.4-36.9,67.4-36.9C152.2,753,151.4,740.9,150.2,728.2z"
   class="st6" />
							<path
   id="path1518"
   d="M183.9,783.1c-0.5-10-1.9-22.5-3.1-27.9c-0.7-2.9-1.5-6.2-2.3-9.7l-27.3-5.4c0.6,8.3,1.1,16.4,1.3,24.1         c0,0-12.1,2.3-26.1,6.7c10.1,1.8,32.3,7.6,33.1,23c0,0-19.2,7.5-28.1,5.6c0,0-12.4-21.8-34.6-15.9c0.1,0,17.7-0.5,26.2,16.2         c0,0-37.5,1.7-36.9-5.4c-1,2.2-1.4,4.4-1,6.8c34.4,11.1,99.7,0,99.7,0S184.4,793.2,183.9,783.1z"
   class="st9" />
							<path
   id="path1520"
   d="M184.8,800l0.5,11.1c0,0-60.4,10.1-102.3,0l-0.7-13.2c0,0,24.1,6.1,45.9,6.1c0,0,1.9-19.2-23.7-21.2         c-4.1-0.3-8.8,1-12.4,3.1c0,0,9.6-7.7,13.6-8.8c1.2-0.3,1.2-0.3,5.4-0.4c12.6-0.2,37.3,5.1,37.4,27.2         C148.5,804,169,804.3,184.8,800z"
   class="st8" />
							<path
   id="path1522"
   d="M183.4,772.8c0,0,2.1,8,0.7,13.9c-0.9,6.1-2.7,13.3-11.5,19.8c-1.8,1.3-10.4-0.8-8.9-2.4         C177.3,790.9,183.4,772.8,183.4,772.8z"
   class="st8" />
						</g>
						<path
   id="path1526"
   d="M265,421.7c0-0.7,0.1-1.4,0.1-2.2c0,0,0.4,0.8,1.1,2.1C265.7,421.7,265.3,421.7,265,421.7z"
   class="st6" />
						<path
   id="path1528"
   d="M164.9,340.2c0,0,26.3,45.7,63.7,38.2c37.4-7.5,25.4-50.7,25.4-50.7c1.7,1,2.7-2.7,6.8-1.6        c29.5,7.7,113.1,15.7,113.1,15.7c14.3,22.6-4,62.6-4,62.6h-33.4l-25.2,86.6c0,0-165.5,133.8-146.1,55.7        c19.4-78.2-9.6-115.6-11-115.1l-43.5-67.7C121.1,348.6,164.9,340.2,164.9,340.2z"
   class="st10" />
						<path
   id="path1530"
   d="M154.3,431.4v-25.7c19.8-11.6,29.7,21.3,63.7,42.1c0.1,3.5,0.4,3.3-0.2,7.3c0,0,37-10.6,33.6-93.5        c7.8-12.5,2.8-34,2.8-34c1.4,0.8,1.4-3.1,4-2.4c15.9,4.7,54.2,9.5,83.1,12.8c4.2,19.4,5.3,33.7,8.1,66.3h-12.8l-25.2,86.6        c0,0-165.5,133.8-146.1,55.7c0.3-1.3,0.6-2.6,0.9-3.8C183.7,467.9,155.6,431,154.3,431.4z"
   class="st11" />
						<path
   id="path1532"
   d="M167.4,459.2l28.2,10c-0.1,4.9-0.6,9.9-1.3,15.1c0,0,10.7-25.3,18.3-32.8c0,0,1.2,10.9,26.8,11.1        c10.5,16.4-3.2,77.6-3.2,77.6l-69.2-1C174.7,503.7,172.1,477.1,167.4,459.2z"
   class="st12" />
						<path
   id="path1534"
   d="M355.8,404.3h3.6c7.8-14.1,16.4-46.1,3.4-63.5c-0.1-0.1-0.2-0.2-0.2-0.3c-1.4-0.1-3-0.3-4.6-0.5        c0.9,0.8,1.8,1.7,2.4,2.5c12.2,16.4,3.2,48.3-4.1,60.9C356.1,403.7,356,404.1,355.8,404.3z"
   class="st13" />
						<path
   id="path1536"
   d="M254.1,327.6c8.1-1.3,14.9-1.3,14.9-1.3l1.5,15.3h-11.1l-0.4,11.8l9.9,2.8l-5.4,16.6l-11-4.5l-8.5,8        l5.4,9.1l-14.2,6.8l-4.6-11l-12.3,1l-1.3,13.1l-19.1-4.4l4.6-11.6L188,374l-6.7,10.3l-13.3-9.2l7.5-9.3l-10.3-12.3l-10.8,4.8        l-7.5-13.5c0,0,9.4-3.1,18-4.5c0,0,24.1,39.5,59.8,33.7C264.3,367.4,254.1,327.6,254.1,327.6z"
   class="st14" />
						<path
   id="path1538"
   d="M156.2,614.7c0,0-10.2,67.1-42.1,126c-10.2,18.9,12.9,24.9,39.4,23.4c26.6-1.4,24.8-20.2,45.1-14.5        c20.3,5.6,34.9,25.3,51.5,19.7c8.3-2.8,19.8-17.9,31.8-18.3c12-0.4,29.9,1.6,29.9,1.6c7-19.1,2.2-198.1-8.5-241        C292.6,468.6,156.2,614.7,156.2,614.7z"
   class="st10" />
						<g
   id="g1548">
							<g
   id="g1546">
								<path
   id="path1540"
   d="M304.8,507.7c-10.7-42.9-153.3,114.8-153.3,114.8s0.3,43.4-37.4,118.2c-5.8,11.5-1.2,17.4,10.6,20.9          c17.5-34.3,25.7-67.3,31.3-89.6c0,0,83.3-10.3,155-96.5C308.4,543.1,307,516.6,304.8,507.7z"
   class="st11" />
								<path
   id="path1542"
   d="M198.6,749.6c2.5,0.7,4.8,1.6,7.1,2.6c10.3-49.6,15.4-105.8,15.4-105.8          c-3.4,31.1-21.9,72.7-38.5,104.7C186.7,748.8,191.2,747.5,198.6,749.6z"
   class="st11" />
								<path
   id="path1544"
   d="M263.2,760.4c5.3-4.2,11.1-8.3,17-9.2c-1.4-34.9-7.5-79.2-7.5-79.2          C273.1,695.4,266.9,746.3,263.2,760.4z"
   class="st11" />
							</g>
						</g>
						<g
   id="g1560">
							<path
   id="path1550"
   d="M253.6,327.7c0,0,55,110.9-79,193c0,0-12.8,8.9-13.6,25c-2.8,57.3-7.8,62.6-15.5,90.2         c-2.1,7.5-20.8,27,24.4,17.6c45.2-9.4,103.5-31.3,141.1-107c43.3-87.2,27.4-161.2,6.7-220.2c0,0-4.7-12.2-18.1-4.7         c-7.5,4.2-18.8,11.9-26.2,4.8C266.2,319.2,253.6,318.7,253.6,327.7z"
   class="st15" />
							<path
   id="path1552"
   d="M272.6,347.6c-5.1,0-8.6,2.5-10.9,5.5c-1.2-5.9-2.7-11-4-15c-2.2-7.3-4-10.3-4-10.3         c-0.1-9,12.5-8.5,19.9-1.3c7.4,7.2,18.6-0.5,26.2-4.8c3.2-1.8,6-2.5,8.3-2.4C299.4,343,284.5,347.6,272.6,347.6z"
   class="st13" />
							<path
   id="path1554"
   d="M176.6,556.7c0,0,155.7-29.7,110.2-228.5c-5.5,1.8-9.6,1.7-13.2-1.8C284.5,399.2,313,488.9,176.6,556.7         z"
   class="st13" />
							<path
   id="path1556"
   d="M293.4,479.6c-15.2,78.8-83.9,111.1-138.6,123.9c-0.5,1.5-0.4,3.2-1.1,4.7c-0.8,3.1-1.6,6.1-2.5,9.1         C306.5,590.4,293.4,479.6,293.4,479.6z"
   class="st13" />
							<path
   id="path1558"
   d="M296.8,323.1c3.5,14,10,38.1,11.7,63.7c0,0-0.4-37.4-5.3-66.7c-1.1,0.4-2.3,0.9-3.6,1.6         C298.8,322.1,297.9,322.6,296.8,323.1z"
   class="st13" />
						</g>
						<path
   id="path1562"
   d="M125.6,717.2c0.8-1.7,1.5-3.4,2.2-5.1c17.5,4.9,50,5.7,72.1-1.8c14.2-4.8,20.5-0.7,27.1,3.7        c4.8,3.1,9.8,6.4,19.1,7.3c20.4,2.1,23.9-9.4,24-9.9l0.4-1.4l1.4-0.4c0.8-0.2,21.2-5.1,43.1-2.4c0,1.9,0,3.8-0.1,5.6        c-17.8-2.2-35.7,0.9-40,1.9c-1.6,3.7-7.2,12.5-23.8,12.5c-1.7,0-3.4-0.1-5.3-0.3c-10.7-1.1-16.8-5.1-21.8-8.3        c-6.1-4-10.6-6.9-22.2-3C178.3,723.7,144.1,722.6,125.6,717.2z"
   class="st13" />
					</g>
				</g>
				<g
   id="g1750">
					<g
   id="g1570">
						<path
   id="path1568"
   d="M186.9,255.8c0,0.6,0.1,1.2,0.1,1.9C187,256.8,186.9,256.2,186.9,255.8        C186.9,255.8,186.9,255.8,186.9,255.8z"
   class="st7" />
					</g>
					<path
   id="path1572"
   d="M106.5,147.9c0-10.1,6-18.8,14.7-22.8c-0.8-2.4-1.2-5-1.2-7.6c0-13.8,11.2-25,25-25c3.1,0,6,0.6,8.7,1.6       c1.8-12.1,12.1-21.4,24.7-21.4c4.4,0,8.5,1.1,12.1,3.1c4.5-6.5,12.1-10.8,20.6-10.8c7.8,0,14.7,3.5,19.3,9.1       c4.6-5.6,11.5-9.1,19.3-9.1c7.8,0,14.7,3.6,19.3,9.1c4.2-3.3,9.6-5.3,15.4-5.3c13.8,0,25,11.2,25,25c0,2.9-0.5,5.7-1.4,8.3       c5.6,4.6,9.2,11.6,9.2,19.4c0,8.9-4.6,16.7-11.6,21.1c0.8,2.5,1.3,5.1,1.3,7.8c0,6.7-2.6,12.7-6.9,17.2       c1.5,3.2,2.4,6.8,2.4,10.6c0,13.8-11.2,25-25,25s-25-11.2-25-25c0-6.7,2.6-12.7,6.9-17.2c-1.5-3.2-2.4-6.8-2.4-10.6       c0-8.9,4.6-16.7,11.6-21.1c-0.8-2.5-1.3-5.1-1.3-7.8c0-2.9,0.5-5.7,1.4-8.3c-1.3-1.1-2.5-2.2-3.5-3.5       c-4.2,3.3-9.6,5.3-15.4,5.3c-7.8,0-14.7-3.5-19.3-9.1c-4.6,5.6-11.5,9.1-19.3,9.1c-4.4,0-8.5-1.1-12.1-3.1       c-4.5,6.5-12.1,10.8-20.6,10.8c-3.1,0-6-0.6-8.7-1.6c-1.3,8.5-6.8,15.7-14.4,19.1c0.8,2.4,1.2,5,1.2,7.6c0,6.1-2.2,11.7-5.8,16       c4.6,4.5,7.4,10.8,7.4,17.7c0,3.5-0.7,6.7-2,9.7c8.2,4.1,13.9,12.6,13.9,22.4c0,13.8-11.2,25-25,25c-13.8,0-25-11.2-25-25       c0-3.5,0.7-6.7,2-9.7c-8.2-4.1-13.9-12.6-13.9-22.4c0-6.1,2.2-11.7,5.8-16C109.4,161.1,106.5,154.8,106.5,147.9z"
   class="st11" />
					<path
   id="path1574"
   d="M151.1,127.4l-4.1,87.7c0,0,14.6,102.2,124.2,102.1c52.1,0,23.6-26,29.5-70.5c1.4-10.9-0.7-29.8-4.4-35.9       c-13.5-22.4,0.5-84.2,0.5-84.2S247.8,70.8,151.1,127.4z"
   class="st6" />
					<path
   id="path1576"
   d="M287.7,210.6c0.3,14-12.7,7.6-12.7,7.6C283.7,216.4,287.7,210.6,287.7,210.6z"
   class="st7" />
					<g
   id="g1646">
						<g
   id="g1610">
							<path
   id="path1578"
   d="M228.3,128.8c-8.5,2.5-20.5,10.9-20.7,10.8c0-0.1,4.1,6.3,15.2,3.2c10.3-3.4,18.8-13.7,18.6-13.7         C241.4,129,236,126.5,228.3,128.8z"
   class="st7" />
							<path
   id="path1580"
   d="M202.5,146.3c-11.8,1.6-28.1,7.8-28.3,7.7c0.1-0.1,2.7,7.5,14.9,6.5c12.5-0.3,29.3-10,29.1-10.1         C218.3,150.3,214.5,145.2,202.5,146.3z"
   class="st7" />
							<path
   id="path1582"
   d="M154.5,164.6c4.3-1.4,9.7-2.9,14.3-3.2c11-0.3,14.1,6.6,14.1,6.7c0.2,0.2-15.4,11.2-26,10         c-0.9-0.1-1.7-0.3-2.4-0.5V164.6z"
   class="st7" />
							<path
   id="path1584"
   d="M205.8,137.6c0,0.2,12.9-7.4,13.3-14.6c-0.5-6.6-10.2-14.7-10.1-14.7c0.1,0.2-6,6-7.3,14.3         C199.4,131.6,205.7,137.7,205.8,137.6z"
   class="st7" />
							<path
   id="path1586"
   d="M195.8,138.1c4.7-8.6-4.1-15.5-3.9-15.5c0.1,0.2-11.9,7.5-17.5,14.9c-5.6,7.7-1.5,14.3-1.3,14.3         C173,152,190.3,146.1,195.8,138.1z"
   class="st7" />
							<path
   id="path1588"
   d="M154.5,143.2c5-4,10.4-6.6,10.4-6.8c-0.2,0,5.6,6.9-0.9,14.7c-2.2,3.9-6,7-9.5,9.3V143.2z"
   class="st7" />
							<path
   id="path1590"
   d="M154.5,163.6c26.8-7.9,52.6-22.7,70.3-39.2c0.2-2.3,0.5-6.8,2.4-10.7c2.3-6.8,7.7-14.2,7.8-14.4         c0-0.3,5.8,12.7,2.9,20c-2.5,4.3-8.4,5.9-11.4,6.4c-18.4,17-44.5,32.4-71.9,40.5V163.6z"
   class="st7" />
							<path
   id="path1592"
   d="M280,122.9c0,0.2,6.2,3.3,9.6,8.6c3.2,5.3,1.8,12.4,1.8,12.4l-1.4-0.2c-2.4-0.6-7.4-2.4-9.5-7.2         C277.3,130.1,280,122.8,280,122.9z"
   class="st7" />
							<path
   id="path1594"
   d="M293.7,139.4c-2.8-4.6-1.3-11.1-1.3-11c0,0,0.5,0.1,1.3,0.2V139.4z"
   class="st7" />
							<path
   id="path1596"
   d="M244.1,98.2c0,0.2,4.2,8.9,6.7,15.7c1.6,3.7,2.2,7.4,2.4,9.2c7.9,12.6,22.9,22.5,40.5,22.5v2.2         c-18.1,0.1-33.3-10.2-41.3-23.7c-1.5-0.4-4.7-1.7-6.5-5.7C242.8,111.3,244.1,98,244.1,98.2z"
   class="st7" />
							<path
   id="path1598"
   d="M260.4,131.8c-0.1,0.1-4.8-3.9-8.9-4.8c-4.1-1-7.3,1.6-7.3,1.7c-0.1,0.1,3.4,7.3,8.3,8.1         C257.5,137.7,260.3,131.7,260.4,131.8z"
   class="st7" />
							<path
   id="path1600"
   d="M273.7,141.4c-0.1,0.1-6.9-4.5-12.2-4.8c-5.1-0.2-8.4,6.1-8.4,6.2c-0.1,0.2,5.6,8.8,12.1,7.4         C271.5,149.1,273.7,141.3,273.7,141.4z"
   class="st7" />
							<path
   id="path1602"
   d="M276,147.2c-6.2,2.1-8.9,9.4-8.9,9.5c-0.2,0.2,8.6,5.3,15.3,1.2c6.3-3.5,7.3-11.4,7.3-11.3         C289.5,146.8,281.8,145.3,276,147.2z"
   class="st7" />
							<path
   id="path1604"
   d="M293,151.1c0.2-0.2,0.5-0.3,0.7-0.4v12.7c-4.3,0.8-8,0.1-7.9,0C285.8,163.2,287.1,155.3,293,151.1z"
   class="st7" />
							<path
   id="path1606"
   d="M261.3,130.2c0.1,0,2.9-4.9,2.1-9.5c-0.9-4.2-4.1-7.6-4.1-7.8c0.1,0-3.6,4.5-3.3,9.1         C256.1,126.9,261.3,130.3,261.3,130.2z"
   class="st7" />
							<path
   id="path1608"
   d="M274.4,139.1c0.1,0,2.4-6.9,0-13c-2.4-4.9-7.4-7-7.4-7.2c0.1,0-3.7,5.1-2.1,10         C266.7,135.3,274.4,139.3,274.4,139.1z"
   class="st7" />
						</g>
						<path
   id="path1612"
   d="M258.3,119.5c0-0.7,0-1.3,0.1-1.9c0.6,1.1,1.2,2.4,1.5,3.7c0.2,0.8,0.2,1.6,0.1,2.3        C259.2,122.6,258.4,121.2,258.3,119.5z"
   class="st7" />
						<path
   id="path1614"
   d="M293.7,155.9c-1.7,0.5-3.3,0.7-4.5,0.8c0.8-1.9,2.1-4.2,4.3-5.7c0.1,0,0.1-0.1,0.2-0.1V155.9z"
   class="st7" />
						<path
   id="path1616"
   d="M297.5,148.9c1.5-0.6,3.1-1.1,4.5-1.5c-0.6,1.9-1.7,4.1-3.7,5.9c-0.2,0.2-0.5,0.4-0.8,0.6V148.9z"
   class="st7" />
						<path
   id="path1618"
   d="M281.2,132.7c-0.9-2-1.2-4.1-1.1-6c1.5,1.2,3.2,2.8,4.3,4.6c1.2,1.9,1.6,4.2,1.7,6.1        C284.4,136.6,282.4,135.2,281.2,132.7z"
   class="st7" />
						<path
   id="path1620"
   d="M228.7,121.5c0.3-2,0.8-4.5,1.8-6.9c0.9-2.2,2.3-4.7,4-7.7c0.9,3.6,1.4,7.2,0.2,9.9        C233.5,119.5,231,120.8,228.7,121.5z"
   class="st7" />
						<path
   id="path1622"
   d="M154.5,153.8v-7.7c3-3,6.9-5.6,9.9-7.2c0.4,2.1,0.1,4.7-2,7.5C160.6,149.3,157.5,151.8,154.5,153.8z"
   class="st7" />
						<path
   id="path1624"
   d="M208,130.1c-0.9-2-1.7-4.7-1.1-7.7c0.8-4.3,3.4-8,5-9.9c1.9,2.2,3.6,4.8,3.9,7.4        C215.9,123.9,211.4,127.5,208,130.1z"
   class="st7" />
						<path
   id="path1626"
   d="M177.5,144.3c-0.2-1.9,0.2-4.6,2.4-7.3c3.4-4.2,9.3-8.5,13-11.1c1.3,2.3,1.8,5,0.2,8.1        C190.4,138.7,182.5,142.3,177.5,144.3z"
   class="st7" />
						<path
   id="path1628"
   d="M267.4,122.3c1.1,0.9,2.2,2.2,3,3.7c0.7,1.4,0.9,3.1,0.9,4.6c-1.5-1.3-3-3-3.6-4.9        C267.3,124.5,267.3,123.4,267.4,122.3z"
   class="st7" />
						<path
   id="path1630"
   d="M154.5,165.8c4.4-1.5,10.5-3.4,15.5-3.8c1-0.1,2,0,2.9,0.1c2.5,0.3,4.3,1.2,5.5,2        c-5.2,2.7-13.8,7.1-19.8,6.4c-0.2,0-0.3,0-0.5-0.1c-1.5-0.2-2.8-0.7-3.8-1.3V165.8z"
   class="st7" />
						<path
   id="path1632"
   d="M275.6,147.7c1.5-0.5,3.5-0.8,5.7-0.9c1.2,0,2.3,0,3.2,0.1c-0.7,1.9-2.1,4.1-4.3,5.3        c-0.9,0.5-2,0.8-3.3,0.9c-2.2,0.1-4.5-0.5-6-1.1C271.9,150.5,273.5,148.5,275.6,147.7z"
   class="st7" />
						<path
   id="path1634"
   d="M211.7,147.5c0.8,0.2,1.5,0.4,2.1,0.6c-5.3,2.7-15.3,6.7-22.7,6.7c-1.7,0-3.3-0.1-4.7-0.4        c-1.9-0.4-3.3-1.1-4.3-1.9c5.5-1.8,15.3-4.4,22.7-5.2C207.4,147.1,209.7,147.1,211.7,147.5z"
   class="st7" />
						<path
   id="path1636"
   d="M249.4,127.7c2.5,0.7,5.5,2.7,7,3.8c-0.5,0.6-1.1,1.1-1.8,1.3c-0.2,0.1-0.5,0.1-0.9,0        c-2.5-0.2-5.2-3.5-6.4-5.1C247.9,127.5,248.7,127.5,249.4,127.7z"
   class="st7" />
						<path
   id="path1638"
   d="M237.2,128.7c-2.6,2.5-8.3,7.4-14.3,9.1c-2.4,0.7-4.7,0.8-6.6,0.3c-0.5-0.1-1.1-0.3-1.7-0.6        c4-2.6,10.4-6.5,15.4-8.1C233.1,128.4,235.5,128.5,237.2,128.7z"
   class="st7" />
						<path
   id="path1640"
   d="M259.7,137.5c0.1,0,0.3,0,0.4,0c2.9,0.2,6.6,2.1,8.8,3.3c-0.8,1.6-2.1,3.3-4,3.7c-0.1,0-0.2,0-0.4,0.1        c-2.8,0.2-6.3-3-7.9-5C257.4,138.6,258.4,137.6,259.7,137.5z"
   class="st7" />
						<path
   id="path1642"
   d="M255.7,140.8C255.7,140.8,255.7,140.8,255.7,140.8c-0.1,0.3-0.2,0.5-0.4,0.7        C255.5,141.2,255.6,141,255.7,140.8z"
   class="st7" />
						<path
   id="path1644"
   d="M270,154.1C270,154.1,270,154.1,270,154.1c-0.1,0.3-0.2,0.5-0.3,0.7C269.8,154.5,269.9,154.3,270,154.1z"
   class="st7" />
					</g>
					<path
   id="path1648"
   d="M189.3,196.5c0,0,10.6,32.3,32.8,27.5c0,0,14.2-5.6,5.7-32.2c0,0,5.2,25.6-7.6,29.6       C220.1,221.5,208.1,228.2,189.3,196.5z"
   class="st8" />
					<path
   id="path1650"
   d="M258.2,188.7c0,0,10.4,30.3,23.5,22.1c0,0,8.1-7.7-0.3-32.7c0,0,6.3,24.5-1.2,30.5       C280.2,208.6,273.6,217.1,258.2,188.7z"
   class="st8" />
					<path
   id="path1652"
   d="M304,106.9c-0.3-1.8-0.7-3.5-1.2-5.1c-2.5-8.1-7.9-14.5-17.5-18.6c-44.3-18.6-139.4,1.5-162.4,50       c-13.3,28.1,14.3,99,14.3,99l15,16.7c2.8,0.3,8.3,1.8,14.4,3.8l20.3,1.5c-7.6-5.1-9.6-10-12.9-22.3c-0.8-2.8-1.6-5.7-2.3-8.6       c11.1-17.3-4.8-30.5-4.8-30.5s10.9-8.9-1.5-23.3c-0.6-17.4,0-30.1,0-30.1c27.6-27.4,112.2-20.3,112.2-20.3       c6.6,43.6,11,66.1,13.4,76.7c0,0,0,0,0,0.1c0.3,1.6,0.6,3,0.9,4.1c0.7,2.9,1,4,1,4c-0.1-1.3-0.1-2.7-0.1-4.1       c0-4,0.2-8.1,0.6-12.3c0,0,0,0,0-0.1C296.5,158.8,307.6,128.3,304,106.9z"
   class="st11" />
					<path
   id="path1654"
   d="M138,243.5c0-6.9,27.9-23.1,33.7-20.3c25.1,12.2,14.4,30,14.4,30c7.3,4.6,13.5,13.2,13.5,22.1       c3.7,2.1,25.2,26,39.3-0.8c3.7-5.6-3.7-12,17.2-16.9c4.3-1,7.2-0.3,10.9-1.2c0.5-1.2,11.3-5.4,18.6-3c6.3,2.1,8,23.4,13.6-25.2       c0.4-5.8-2.5-2.3-8.4-35.8c-1.9-10.5,15.9,13.8,14.2,28.4c-0.4,3.9-1.3,7.5-2.7,10.8c3.8,4.7,6.2,10.8,6.4,17.5       c0.1,2.7-0.2,5.3-0.7,7.7c6.6,4.4,11.8,11.8,12.9,20.2c1.2,7.4-1.1,14.2-5.3,18.7c1.2,2.6,2.1,5.5,2.6,8.4       c2.8,14.1-4.3,25.6-15.3,26.3c-4.6,0.3-9-1.4-12.7-4.7c-2.8,6.8-7.9,12.1-14.5,13.5c-6.6,1.4-12.9-2-17.2-8.4       c-4.4,7.7-11.4,13.2-19.3,13.3c-8.8-0.5-16.3-7.5-20.6-16.6c-3.6,1.7-7.6,2.1-11.8,1c-12-3.1-21.6-15-23.1-27.6       c-2.6,0.7-5.4,0.9-8.4,0.6c-13.2-1.4-24-13.5-24-27.7c0-2.7,0.4-5.3,1.2-7.8C144,262.1,138,253.5,138,243.5z"
   class="st11" />
					<g
   id="g1662">
						<path
   id="path1656"
   d="M242.2,278.8c0,0,25.5,3.2,53.7-10c0,0-4.9,9.8-17.2,10.6c0,0-5.6,11.3,0.8,21        C279.5,300.3,253.7,301.4,242.2,278.8z"
   class="st16" />
						<path
   id="path1658"
   d="M245.4,280.8c0,0,22,0.2,43.4-7.5l1.1,6.6c0,0-26.9,9.6-42.9,3.6L245.4,280.8z"
   class="st10" />
						<path
   id="path1660"
   d="M254.4,289.6c0,0,12.8-4.5,20.5,8.9C274.9,298.5,258.3,296.8,254.4,289.6z"
   class="st15" />
					</g>
					<circle
   id="circle1664"
   r="29.1"
   cy="141.6"
   cx="168.7"
   class="st11" />
					<circle
   id="circle1666"
   r="34.5"
   cy="116.5"
   cx="220.8"
   class="st11" />
					<ellipse
   id="ellipse1668"
   ry="29.1"
   rx="29.1"
   cy="119.6"
   cx="274.9"
   class="st11" />
					<path
   id="path1670"
   d="M171,240.2c-4.4-9.1-20.7-23.3-36.3-16.2c-25.4,11.6,6.2,48.4,36.8,39.1       C176.7,258.9,173.4,245.1,171,240.2z"
   class="st6" />
					<path
   id="path1672"
   d="M141,229.7c-13.3,1.1-2.9,19,1.7,20.5c0,0-11.8-16.3-0.2-18.1c11.5-1.9,20,15.8,20,15.8       s-13.2-12.3-13.1-1.5c0,0,5.9-5.1,18,9C167.3,255.5,161.6,228.1,141,229.7z"
   class="st8" />
					<path
   id="path1674"
   d="M285.8,243.3c0,0-18.2-33.8-35.2-46.1c0,0,23.8,8.5,45,47.4c0,0-18.7,13.5-42,13.5       C253.6,258.1,274.1,252.3,285.8,243.3z"
   class="st8" />
					<g
   id="g1748">
						<g
   id="g1708">
							<path
   id="path1676"
   d="M228.9,120.3c-9,3.1-21.1,11.6-21.3,11.5c0-0.1,4.1,6.3,15.4,2.9c11.3-4.6,21-16.1,20.7-16.1         C243.7,118.6,237.4,117.2,228.9,120.3z"
   class="st17" />
							<path
   id="path1678"
   d="M202.5,138.6c-11.8,1.6-28.1,7.8-28.3,7.7c0.1-0.1,2.7,7.5,14.9,6.5c12.5-0.3,29.4-10.1,29.1-10.2         C218.4,142.5,214.5,137.5,202.5,138.6z"
   class="st17" />
							<path
   id="path1680"
   d="M168.9,153.7c-9.7,0.8-22.5,6.3-22.6,6.1c0.1-0.1,0.8,9.4,10.7,10.6c10.6,1.2,26.2-9.8,26-10         C183,160.3,179.9,153.5,168.9,153.7z"
   class="st17" />
							<path
   id="path1682"
   d="M140.4,166.7c-9.1-2.6-24.3-1.6-24.4-1.9c0.1-0.1-2,9.7,8.2,14.5c9.7,5.3,26.5-0.6,26.3-0.8         C150.5,178.4,149.4,169.5,140.4,166.7z"
   class="st17" />
							<path
   id="path1684"
   d="M205.8,129.9c0,0.2,13-7.5,13.3-14.7c-0.5-6.5-10.3-14.7-10.2-14.6c0.1,0.2-6,6-7.3,14.3         C199.4,123.9,205.7,130,205.8,129.9z"
   class="st17" />
							<path
   id="path1686"
   d="M195.8,130.4c4.7-8.6-4.1-15.5-3.9-15.5c0.1,0.2-11.9,7.5-17.5,14.9c-5.6,7.7-1.5,14.3-1.3,14.3         C173,144.3,190.3,138.4,195.8,130.4z"
   class="st17" />
							<path
   id="path1688"
   d="M164,143.4c6.5-7.8,0.7-14.7,0.9-14.7c0,0.2-11.5,5.9-16.6,13c-5,7.4-2.8,15.4-2.7,15.4         C145.6,157.3,158.9,152.3,164,143.4z"
   class="st17" />
							<path
   id="path1690"
   d="M226.8,117.6c3.2-0.7,9.7-3,12.3-7.4c2.7-7.1-4.1-18.9-4-18.6c0,0.2-5.5,7.5-7.7,14.3         c-1.9,4-2.2,8.4-2.3,10.6c-26.1,24.4-69,44.8-107.1,45.5c4.4-0.2,15.2-1.6,20.5-7.6c6.3-7,2.8-15,2.9-14.9         c0,0.2-11.1,3-18.1,8.2c-7.6,5.6-7.4,14.2-7.3,14.3c0,0,0.3,0,0.9,0c-0.7,0-1.4,0.1-2,0.1c0,0.8,0,1.6,0,2.5         C155.2,164.9,199.2,143.2,226.8,117.6z"
   class="st17" />
							<path
   id="path1692"
   d="M284.9,109.8c0,0.1,6.3,3.4,9.9,8.5c3.2,5.4,2.3,12.2,2.3,12.2l-1.2-0.4c-2.1-0.9-6.7-3.3-8.9-8.1         C283.4,116,285,109.8,284.9,109.8z"
   class="st17" />
							<path
   id="path1694"
   d="M256.1,112.3c12.9,14.3,34.2,26.6,54.9,22.9c0-0.7,0.1-1.4,0.1-2.1c-0.3,0-0.6,0-0.9,0         c0.3,0,0.4,0,0.4-0.1c0.1-0.1,0.1-7.3-3.8-11.6c-3.9-3.9-9.8-5.4-9.8-5.5c0,0-0.8,6.8,2.8,11.9c2.7,4.5,8,5.2,10,5.3         c-19.7,2.8-40.3-8.9-52.9-21.8c-0.4-1.5,0.2-5.9-2.1-8.9c-3.4-5.8-10.1-12.2-10.2-12.3c0-0.3-0.6,12.1,3.4,18.1         C250.5,111.5,254.3,112.2,256.1,112.3z"
   class="st17" />
							<path
   id="path1696"
   d="M263.9,117.3c-0.1,0.1-3.9-2-8.6-2.2c-4.8-0.2-8.3,2.8-8.3,2.8c-0.1,0.1,4.5,6.3,10.4,6.1         C263.2,123.9,263.9,117.2,263.9,117.3z"
   class="st17" />
							<path
   id="path1698"
   d="M280.1,127.6c-0.1,0.1-6.7-5.4-12.5-5.2c-5.9,0.5-9.4,7.3-9.4,7.4c-0.2,0.2,6.3,8.3,13.7,6.1         C278.6,134.3,280.1,127.5,280.1,127.6z"
   class="st17" />
							<path
   id="path1700"
   d="M282.9,132.6c-6.1,2-9.6,10.2-9.6,10.4c-0.2,0.2,8.1,6,15.1,1.5c6-3.2,7.2-11.5,7.2-11.4         C295.5,133.2,288.6,130.7,282.9,132.6z"
   class="st17" />
							<path
   id="path1702"
   d="M298.4,138.2c-5.3,3.7-7.5,12.6-7.5,12.7c-0.1,0.3,8.4,3.5,14.4-2.4c5.5-4.7,5.2-13.1,5.2-13         C310.4,135.7,303.3,135.3,298.4,138.2z"
   class="st17" />
							<path
   id="path1704"
   d="M266.8,116.5c0.1,0,2.5-4.6,0.9-8.4c-1.6-3.5-5.6-6.1-5.6-6.2c0.1,0-3.3,4.1-2.4,8.1         C260.6,114.2,266.8,116.7,266.8,116.5z"
   class="st17" />
							<path
   id="path1706"
   d="M281.4,124.1c0.1,0,1.7-6.3-1.4-11.8c-3.1-4.2-8.6-5.8-8.6-5.9c0.1,0-3.1,4.5-0.7,8.6         C273.2,120.7,281.4,124.3,281.4,124.1z"
   class="st17" />
						</g>
						<path
   id="path1710"
   d="M298.7,117.5c0.3,2.3,1,4.4,2,5.9c0.9,1.3,2.1,2.2,3.8,2.7c0.7,0.2,1.3,0.3,1.8,0.4        c-0.3-1.8-1.1-4.2-2.5-5.7C302.3,119.3,300.3,118.2,298.7,117.5z"
   class="st18" />
						<path
   id="path1712"
   d="M285.6,113.1c0.2,1.7,0.7,3.5,1.8,5.4c1.3,2.4,3.3,3.9,4.9,4.9c-0.2-1.8-0.8-4-2.1-5.9        C288.9,115.8,287.2,114.3,285.6,113.1z"
   class="st18" />
						<path
   id="path1714"
   d="M272.2,109.3c0,0.9,0.2,1.9,0.8,2.8c0.9,1.7,2.7,3.1,4.4,4.2c-0.2-1.3-0.7-2.8-1.5-4        C274.9,111,273.5,110,272.2,109.3z"
   class="st18" />
						<path
   id="path1716"
   d="M262,105.9c0,0.5,0,1.1,0.1,1.7c0.3,1.4,1.3,2.5,2.4,3.3c0-0.7-0.1-1.3-0.4-2        C263.6,107.8,262.8,106.8,262,105.9z"
   class="st18" />
						<path
   id="path1718"
   d="M247.4,97.7c0.4,1.1-0.4,4.3,2.3,7.7c0.4,0.5,2.3,1.4,2.7,1.8c-0.5-1-0.3-2.6-0.8-3.9        C249.7,99,247.6,98.1,247.4,97.7z"
   class="st18" />
						<path
   id="path1720"
   d="M229.1,113.2c2.5-0.9,5.2-2.5,6.4-5.1c1.2-2.6,0.5-6-0.7-9.3c-1.7,2.9-3,5.5-4,7.6        C229.9,108.8,229.4,111.2,229.1,113.2z"
   class="st18" />
						<path
   id="path1722"
   d="M206.9,114.7c-0.7,3,0.1,5.8,1.1,7.7c3.4-2.5,8-6.2,7.8-10.2c-0.2-2.6-1.9-5.1-3.9-7.4        C210.3,106.7,207.7,110.3,206.9,114.7z"
   class="st18" />
						<path
   id="path1724"
   d="M177.5,136.6c5-2,12.9-5.7,15.6-10.3c1.6-3.1,1.1-5.9-0.2-8.1c-3.7,2.7-9.6,7-13,11.1        C177.7,132.1,177.4,134.7,177.5,136.6z"
   class="st18" />
						<path
   id="path1726"
   d="M149.6,148.9c3.8-1.9,9.9-5.5,12.8-10.2c2.1-2.8,2.5-5.4,2-7.5c-3.9,2.1-9.4,5.8-12.4,10        C150.2,143.9,149.7,146.7,149.6,148.9z"
   class="st18" />
						<path
   id="path1728"
   d="M122.6,154.5c5-0.5,11.8-2.2,15.2-6c2.2-2.4,2.8-5,2.8-7.2c-3.5,1.2-9.3,3.5-13.3,6.6        C124.5,149.9,123.2,152.4,122.6,154.5z"
   class="st18" />
						<path
   id="path1730"
   d="M147.6,172.2c-1.1-1.8-3-3.9-6.4-5c-1-0.3-2.1-0.5-3.4-0.8c-5.2-0.9-11.4-1-15.4-1        c0.7,2.2,2.3,4.6,5.8,6.4c1.3,0.7,2.8,1.2,4.5,1.5C137.9,174.3,143.9,173.2,147.6,172.2z"
   class="st18" />
						<path
   id="path1732"
   d="M178.5,156.5c-1.2-0.9-3-1.7-5.5-2c-0.9-0.1-1.9-0.2-2.9-0.1c-6.1,0.5-13.8,3.1-18,4.7        c1.1,1.7,3,3.3,6.2,3.8l0,0c0.1,0,0.3,0,0.5,0.1C164.7,163.6,173.3,159.2,178.5,156.5z"
   class="st18" />
						<path
   id="path1734"
   d="M213.8,140.5c-0.6-0.2-1.3-0.5-2.1-0.6c-2-0.4-4.4-0.5-7.1-0.2c-7.4,0.8-17.2,3.4-22.7,5.2        c1,0.7,2.4,1.4,4.3,1.9c1.4,0.3,3,0.4,4.7,0.4C198.5,147.2,208.5,143.2,213.8,140.5z"
   class="st18" />
						<path
   id="path1736"
   d="M238.8,119.1c-1.9,0.1-4.7,0.4-8,1.6c-5.4,2.1-12.1,6.4-16.2,9.1c0.6,0.3,1.2,0.5,1.7,0.6l0,0        c1.9,0.4,4.2,0.2,6.8-0.6C229.7,127.5,236,121.9,238.8,119.1z"
   class="st18" />
						<path
   id="path1738"
   d="M258.5,120c0.4,0,0.7-0.1,1-0.2c0.8-0.2,1.4-0.9,2-1.5c-1.8-0.8-5.4-2.1-8.4-2.3        c-0.9-0.1-1.8,0.1-2.4,0.4C252.1,117.7,255.5,120.3,258.5,120z"
   class="st18" />
						<path
   id="path1740"
   d="M275.9,125.8c-2.4-1.1-6.6-2.6-9.8-2.4c-0.1,0-0.3,0-0.4,0.1c-1.4,0.3-2.6,1.4-3.4,2.4        c2,1.7,6,4.5,9.1,3.9l0,0c0.1,0,0.3-0.1,0.4-0.1C273.8,129.2,275.1,127.4,275.9,125.8z"
   class="st18" />
						<path
   id="path1742"
   d="M276.7,139.7C276.7,139.7,276.7,139.7,276.7,139.7c-0.1,0.3-0.2,0.6-0.4,0.8        C276.5,140.2,276.6,140,276.7,139.7z"
   class="st18" />
						<path
   id="path1744"
   d="M291.2,132.7c-0.9-0.2-1.8-0.3-2.9-0.4c-2.1-0.1-4,0.1-5.4,0.6c-2.1,0.8-3.8,2.9-4.8,4.6        c1.5,0.6,3.8,1.3,5.9,1.3c1.3,0,2.3-0.3,3.2-0.8C289.2,136.7,290.5,134.5,291.2,132.7z"
   class="st18" />
						<path
   id="path1746"
   d="M306,136c-2.2,0.3-5,0.9-7.2,2.3c-1.9,1.3-3.2,3.6-4.1,5.6c2.1,0.2,5.5,0.1,8-2.2        C304.5,139.9,305.5,137.8,306,136z"
   class="st18" />
					</g>
				</g>
			</g>
			<g
   id="g1858">
				<g
   id="g1780">
					<g
   id="g1774">
						<g
   id="g1756">
							<path
   id="path1754"
   d="M549,530.3c0,3.5,1.4,6.3,3.3,6.3c1.9,0,3.4-2.8,3.5-6.3c0.1-3.5-1.4-6.3-3.3-6.3         C550.6,523.9,549,526.8,549,530.3z"
   class="st19" />
						</g>
						<g
   id="g1760">
							<path
   id="path1758"
   d="M551.7,526c1.3,0,2.3,1.9,2.2,4.3c0,2.4-1.1,4.3-2.4,4.3c-7.2,0-14.3,0-21.5,0c0-2.9,0-5.7,0.1-8.6         C537.3,526,544.5,526,551.7,526z"
   class="st8" />
						</g>
						<g
   id="g1764">
							<path
   id="path1762"
   d="M526.3,530.3c0,3.5,1.5,6.3,3.3,6.3c1.9,0,3.4-2.8,3.4-6.3c0-3.5-1.4-6.3-3.3-6.3         C527.9,523.9,526.4,526.8,526.3,530.3z"
   class="st19" />
						</g>
						<g
   id="g1768">
							<path
   id="path1766"
   d="M530.2,530.3c0-4.5-1.8-8.1-4.2-8.1c-2.4,0-4.4,3.6-4.4,8.1c0,4.5,1.9,8.1,4.3,8.1         C528.1,538.4,530.1,534.7,530.2,530.3z"
   class="st8" />
						</g>
						<g
   id="g1772">
							<path
   id="path1770"
   d="M528.5,530.3c0.1-8.9-3.7-16.2-8.5-16.2c-4.8,0-8.8,7.2-8.9,16.2c-0.1,8.9,3.8,16.2,8.6,16.2         C524.5,546.5,528.4,539.2,528.5,530.3z"
   class="st8" />
						</g>
					</g>
					<path
   id="path1776"
   d="M385.8,538.6c41.7,4.2,85.4,4.2,133.3,0c0-5.6,0.1-11.1,0.1-16.7c-44.5,0-89,0-133.6,0       C385.7,527.5,385.7,533,385.8,538.6z"
   class="st11" />
					<path
   id="path1778"
   d="M523.6,530.3c0-4.6-1.9-8.3-4.4-8.3c-2.5,0-4.5,3.7-4.6,8.3c0,4.6,1.9,8.3,4.4,8.3       C521.5,538.6,523.5,534.9,523.6,530.3z"
   class="st11" />
				</g>
				<g
   id="g1834">
					<g
   id="g1802">
						<g
   id="g1784">
							<path
   id="path1782"
   d="M570.6,244.4c-0.3,3.5,1.3,6.5,3.6,6.6c2.3,0.1,4.4-2.6,4.7-6.1c0.3-3.5-1.3-6.5-3.7-6.6         C573,238.2,570.9,240.9,570.6,244.4z"
   class="st19" />
						</g>
						<g
   id="g1788">
							<path
   id="path1786"
   d="M574.2,240.3c1.6,0.1,2.7,2.1,2.5,4.5c-0.2,2.4-1.6,4.2-3.2,4.1c-8.8-0.6-17.7-1.1-26.5-1.5         c0.2-2.9,0.4-5.8,0.6-8.7C556.4,239.1,565.3,239.7,574.2,240.3z"
   class="st8" />
						</g>
						<g
   id="g1792">
							<path
   id="path1790"
   d="M542.7,242.8c-0.2,3.6,1.4,6.5,3.7,6.6c2.3,0.1,4.4-2.7,4.7-6.2c0.3-3.5-1.4-6.5-3.7-6.7         C545,236.5,542.9,239.2,542.7,242.8z"
   class="st19" />
						</g>
						<g
   id="g1796">
							<path
   id="path1794"
   d="M547.4,243c0.3-4.5-1.8-8.3-4.8-8.5c-3-0.2-5.6,3.4-5.9,8c-0.3,4.6,1.8,8.3,4.7,8.5         C544.4,251.1,547,247.6,547.4,243z"
   class="st8" />
						</g>
						<g
   id="g1800">
							<path
   id="path1798"
   d="M545.3,242.9c0.7-9.1-3.6-16.7-9.6-17c-5.9-0.3-11.2,6.9-11.7,16.1c-0.5,9.2,3.7,16.7,9.5,16.9         C539.4,259.1,544.7,252,545.3,242.9z"
   class="st8" />
						</g>
					</g>
					<path
   id="path1804"
   d="M393.2,381.3c-11-58-36.9-78.8-26.8-139.6c55.5-2.4,106.5-2.2,161.9,0.5c-0.8-0.3-34.1,58.6-8.5,136.4       c23,77.5,4.8,148,3.7,153.1c-26.8,6-107.6,4.9-136.2,0C387.3,531.7,407,454.1,393.2,381.3z"
   class="st10" />
					<path
   id="path1806"
   d="M370.9,258.6c-0.4-5.7-0.8-11.3-1.1-17c10.2-0.5,20.4-0.9,30.5-1.2c42.7-0.9,85.2-0.4,128,1.7       c-0.2-0.1-3.7,5.7-7.5,16C470.7,256.4,421.1,256.5,370.9,258.6z"
   class="st11" />
					<path
   id="path1808"
   d="M370.9,250.9c54.4-2.3,108-2.3,162.3,0c0.4-5.7,0.8-11.3,1.1-17c-54.9-2.6-109.7-2.6-164.6,0       C370.1,239.6,370.5,245.3,370.9,250.9z"
   class="st10" />
					<path
   id="path1810"
   d="M539.3,242.6c0.3-4.7-1.9-8.6-4.9-8.8c-3-0.1-5.7,3.6-6,8.3c-0.3,4.7,1.9,8.6,4.9,8.7       C536.2,251,538.9,247.3,539.3,242.6z"
   class="st10" />
					<g
   id="g1832">
						<g
   id="g1814">
							<path
   id="path1812"
   d="M359.4,243c0.7,9.1,6,16.2,11.8,16c5.8-0.2,10.1-7.8,9.5-16.9c-0.5-9.2-5.8-16.4-11.7-16.1         C363,226.2,358.7,233.9,359.4,243z"
   class="st19" />
						</g>
						<g
   id="g1818">
							<path
   id="path1816"
   d="M357.3,243.1c0.3,4.5,3,8.1,5.9,8c2.9-0.1,5-3.9,4.7-8.5c-0.3-4.6-3-8.1-5.9-8         C359.1,234.7,357,238.5,357.3,243.1z"
   class="st8" />
						</g>
						<g
   id="g1822">
							<path
   id="path1820"
   d="M353.7,243.3c0.3,3.5,2.4,6.3,4.7,6.2c2.3-0.1,3.9-3.1,3.7-6.6c-0.3-3.6-2.3-6.3-4.6-6.2         C355.1,236.7,353.4,239.7,353.7,243.3z"
   class="st19" />
						</g>
						<g
   id="g1826">
							<path
   id="path1824"
   d="M356.6,238.7c1.6-0.1,3,1.8,3.2,4.2c0.2,2.4-0.9,4.4-2.5,4.5c-8.8,0.4-17.6,0.9-26.5,1.5         c-0.2-2.9-0.5-5.7-0.7-8.6C338.9,239.7,347.7,239.2,356.6,238.7z"
   class="st8" />
						</g>
						<g
   id="g1830">
							<path
   id="path1828"
   d="M325.7,245c0.3,3.5,2.4,6.2,4.7,6.1c2.3-0.1,3.9-3.1,3.6-6.6c-0.3-3.5-2.4-6.2-4.7-6.1         C327.1,238.5,325.4,241.5,325.7,245z"
   class="st19" />
						</g>
					</g>
				</g>
				<g
   id="g1856">
					<g
   id="g1838">
						<path
   id="path1836"
   d="M376.8,530.3c0.1,8.9,4,16.2,8.7,16.2c4.8,0,8.7-7.2,8.6-16.2c-0.1-8.9-4.1-16.2-8.9-16.2        C380.5,514.1,376.7,521.3,376.8,530.3z"
   class="st19" />
					</g>
					<g
   id="g1842">
						<path
   id="path1840"
   d="M375.2,530.3c0,4.5,2,8.1,4.4,8.1c2.4,0,4.3-3.6,4.3-8.1c0-4.5-2-8.1-4.4-8.1        C377,522.2,375.1,525.8,375.2,530.3z"
   class="st8" />
					</g>
					<g
   id="g1846">
						<path
   id="path1844"
   d="M372.2,530.3c0,3.5,1.6,6.3,3.4,6.3c1.9,0,3.4-2.8,3.3-6.3c0-3.5-1.6-6.3-3.5-6.3        S372.2,526.8,372.2,530.3z"
   class="st19" />
					</g>
					<g
   id="g1850">
						<path
   id="path1848"
   d="M374.8,526c1.3,0,2.3,1.9,2.4,4.3c0,2.4-1,4.3-2.3,4.3c-7.2,0-14.3,0-21.5,0c0-2.9-0.1-5.7-0.1-8.6        C360.4,526,367.6,526,374.8,526z"
   class="st8" />
					</g>
					<g
   id="g1854">
						<path
   id="path1852"
   d="M349.6,530.3c0.1,3.5,1.6,6.3,3.5,6.3c1.9,0,3.4-2.8,3.3-6.3c0-3.5-1.6-6.3-3.5-6.3        C351,523.9,349.5,526.8,349.6,530.3z"
   class="st19" />
					</g>
				</g>
			</g>
			<path
   id="path1860"
   d="M236.1,264.6c0,0-16.5,9.1-15.4,20.6C220.8,285.2,225.4,275.8,236.1,264.6z"
   class="st7" />
			<path
   id="path1862"
   d="M229.3,228.5c-4.8,13.4-17,3.4-17,3.4C222.6,232.8,229.3,228.5,229.3,228.5z"
   class="st7" />
			<path
   id="path1864"
   d="M219.4,163.7c9.1,2.2,11.2,17.8-25.7,27.5C156.9,200.9,210.3,161.5,219.4,163.7z"
   class="st11" />
			<path
   id="path1866"
   d="M250,155.2c-6.2,5.1-0.4,20.3,28.2,15.5C306.7,166,256.3,150.2,250,155.2z"
   class="st11" />
			<g
   id="g1876">
				<path
   id="path1868"
   d="M465.1,232c0.7,5-1.4,11.2-5.9,13.5c-2,1.1-13.2,4.4-20.4-0.4c-3.4-2.3-4.4-12-9.7-13      C441.1,231.9,453.1,231.9,465.1,232z"
   class="st11" />
				<path
   id="path1870"
   d="M460.5,242.7c-2,1.1-13.2,4.4-20.4-0.4c-3.5-2.4-5.7-10-11.6-10.2c0,0,1.1-5.9,7.6-9.5      c7.1-3.9,20.6-0.9,26.4,4.2C467.3,230.9,466.9,239.2,460.5,242.7z"
   class="st6" />
				<path
   id="path1872"
   d="M441.4,243c0,0,7.5,1.9,8.7-4.5c1.2-6.4-0.8-15.8-10.4-17.3c0,0,10.9,4.7,9,17.3      C448.2,242.3,441.4,243,441.4,243z"
   class="st8" />
				<path
   id="path1874"
   d="M456.7,243.8c0,0,4.9-0.5,5.5-4.7c1-6.4-0.8-15.8-10.4-17.3c0,0,10.9,4.7,9,17.3      C460.3,242.8,456.7,243.8,456.7,243.8z"
   class="st8" />
			</g>
			<path
   id="path1878"
   d="M176.3,447.4l-2.8,47.2c0,0,3.1,5.6,26.1-15c13.4-12,16.4-24.3,12.9-28.2c-3.5-3.8-36.2-4.7-36.2-4.7     L176.3,447.4z"
   class="st11" />
			<g
   id="g1892">
				<g
   id="g1890">
					<path
   id="path1880"
   d="M327.1,434c0,0,4.2-6.1-2.8-6.9c-34-1.5-39.3,26.6-40.8,30.3c-13.2,3.5-59.1,7.4-73,4.4l-3.3-2.3       c-16.8,4.5-25.1,12.8-29.2,19.1c8,7.5,10.7,11.2,17.6,15c0,0,66.2,1.5,137-24.6c13.8-5.1,29-10.2,32.8-18.3       c4.1-8.8,1.6-19.2-7.3-21.3C348,427,327.1,434,327.1,434z"
   class="st6" />
					<path
   id="path1882"
   d="M210.5,461.8l-10.9-10.2c-16.8,4.5-17.6,20.7-21.7,27c5.3,5,8.3,8.3,11.7,11.1       C192.1,483.4,197.8,473.6,210.5,461.8z"
   class="st7" />
					<path
   id="path1884"
   d="M325.2,446.1c0,0,19.2-4.4,40.3-11.4C365.5,434.7,356.7,442.6,325.2,446.1z"
   class="st8" />
					<path
   id="path1886"
   d="M366.8,446.5c0,0-15.9,14.5-40,13.4C326.8,459.9,348.1,456.8,366.8,446.5z"
   class="st8" />
					<path
   id="path1888"
   d="M304.5,442.8c0,0,15-6.4,22.6-8.7C327.1,434,314.9,435.8,304.5,442.8z"
   class="st8" />
				</g>
			</g>
			<path
   id="path1894"
   d="M110.8,363.8l51.7,28c10.3,15.2,19.5,39.6,51.2,59.7c0,0-27.3-1.1-40.2,43.1     C173.5,494.6,67.2,426.8,110.8,363.8z"
   class="st10" />
			<path
   id="path1896"
   d="M198.7,440.3c-18.1,5.6-31.4,20.3-39.5,44c-0.9-0.7-1.9-1.5-2.8-2.2c8.2-23,21.7-38.1,39.4-44.4     C196.8,438.6,197.7,439.5,198.7,440.3z"
   class="st13" />
		</g>
	</g>
</g>
<path
   class="st1"
   d="m 1255.677,441.20501 c -1.2003,-3.4014 -0.53,-5.84288 1.0588,-8.85545 3.0456,1.27435 5.3382,2.75565 6.5384,6.15704 1.2003,3.40143 1.0184,8.15187 -0.529,11.07343 -3.0871,-1.18334 -5.9094,-4.88259 -7.0682,-8.37502 z"
   id="path1430-3"
   style="fill:#ee7914" /><path
   class="st1"
   d="m 1236.2586,412.5307 c -2.8555,2.30144 -5.3814,2.47415 -8.6944,1.90493 0.2543,-3.34295 0.7863,-5.92889 3.6417,-8.23033 2.8554,-2.30142 7.345,-3.74859 10.6579,-3.17937 -0.2542,3.34294 -2.8472,7.22585 -5.6052,9.50477 z"
   id="path1432-6"
   style="fill:#ee7914" /></svg>