<?xml version="1.0" encoding="UTF-8" standalone="no"?>
<svg
   xmlns:dc="http://purl.org/dc/elements/1.1/"
   xmlns:cc="http://creativecommons.org/ns#"
   xmlns:rdf="http://www.w3.org/1999/02/22-rdf-syntax-ns#"
   xmlns:svg="http://www.w3.org/2000/svg"
   xmlns="http://www.w3.org/2000/svg"
   xmlns:sodipodi="http://sodipodi.sourceforge.net/DTD/sodipodi-0.dtd"
   xmlns:inkscape="http://www.inkscape.org/namespaces/inkscape"
   xml:space="preserve"
   viewBox="0 0 34.999999 48.735466"
   y="0px"
   x="0px"
   id="Layer_1"
   version="1.1"
   sodipodi:docname="bouquet_small.svg"
   width="35"
   height="48.735466"
   inkscape:version="0.92.3 (2405546, 2018-03-11)"><sodipodi:namedview
   pagecolor="#ffffff"
   bordercolor="#666666"
   borderopacity="1"
   objecttolerance="10"
   gridtolerance="10"
   guidetolerance="10"
   inkscape:pageopacity="0"
   inkscape:pageshadow="2"
   inkscape:window-width="1918"
   inkscape:window-height="1175"
   id="namedview1866"
   showgrid="false"
   fit-margin-top="0"
   fit-margin-left="0"
   fit-margin-right="0"
   fit-margin-bottom="0"
   inkscape:zoom="3.2637977"
   inkscape:cx="-21.465291"
   inkscape:cy="96.793576"
   inkscape:window-x="0"
   inkscape:window-y="23"
   inkscape:window-maximized="0"
   inkscape:current-layer="Layer_1" /><metadata
   id="metadata1909"><rdf:RDF><cc:Work
       rdf:about=""><dc:format>image/svg+xml</dc:format><dc:type
         rdf:resource="http://purl.org/dc/dcmitype/StillImage" /><dc:title></dc:title></cc:Work></rdf:RDF></metadata><defs
   id="defs1907">
	
	

		
		
	
			
			
		
				
				
				
			
					
					
					
					
						
					
				
					
					
					
					
					
				
					
					
					
					
					
						
				</defs>
<style
   id="style1382"
   type="text/css">
	.st0{fill:#465D63;}
	.st1{fill:#EE7914;}
	.st2{fill:#3C4E52;}
	.st3{clip-path:url(#SVGID_2_);}
	.st4{fill:#5EAAAA;}
	.st5{fill:#EFA21B;}
	.st6{fill:#EDB890;}
	.st7{fill:#E2AB86;}
	.st8{fill:#9A593D;}
	.st9{fill:#D89D75;}
	.st10{fill:#FFFFFF;}
	.st11{fill:#E5E1D8;}
	.st12{fill:#D6D2C9;}
	.st13{fill:#AF3922;}
	.st14{fill:#FFC248;}
	.st15{fill:#D55434;}
	.st16{fill:#582A2C;}
	.st17{fill:#FFBC00;}
	.st18{fill:#FFDC83;}
	.st19{fill:#AD6B53;}
</style>





<path
   inkscape:connector-curvature="0"
   class="st1"
   d="m 10.225291,12.819767 c 0.559593,1.729651 0.203488,3.001454 -0.6104654,4.476745 -1.5770349,-0.71221 -2.6962209,-1.424419 -3.255814,-3.15407 -0.559593,-1.729651 -0.5087209,-4.12064 0.3561047,-5.646803 1.5261628,0.71221 2.8997093,2.594477 3.5101747,4.324128 z"
   id="path1412"
   style="fill:#ee7914;stroke-width:0.50872093" /><path
   inkscape:connector-curvature="0"
   class="st1"
   d="m 5.1889535,15.922965 c 1.8313953,0 2.8997093,0.712209 4.0697674,1.984012 -1.119186,1.271802 -2.1875,2.136628 -4.0188953,2.136628 C 3.4084302,20.043605 1.1700581,19.229651 0,17.957849 1.119186,16.686046 3.3575581,15.922965 5.1889535,15.922965 Z"
   id="path1414"
   style="fill:#ee7914;stroke-width:0.50872093" /><path
   inkscape:connector-curvature="0"
   class="st1"
   d="m 6.5625,21.671512 c 0.559593,-1.729652 1.5770349,-2.543605 3.1031977,-3.255814 0.8648253,1.47529 1.3226743,2.747093 0.7630813,4.476744 -0.559593,1.729651 -2.0348837,3.66279 -3.5610464,4.375 C 6.0537791,25.792151 6.002907,23.452035 6.5625,21.671512 Z"
   id="path1416"
   style="fill:#ee7914;stroke-width:0.50872093" /><path
   inkscape:connector-curvature="0"
   class="st1"
   d="m 12.463663,22.12936 c -1.475291,-1.068314 -1.93314,-2.289244 -2.136628,-3.968023 1.678779,-0.356105 3.001453,-0.406977 4.527616,0.661337 1.475291,1.068314 2.848837,3.052326 3.052326,4.731105 -1.678779,0.356105 -3.968024,-0.356105 -5.443314,-1.424419 z"
   id="path1418"
   style="fill:#ee7914;stroke-width:0.50872093" /><path
   inkscape:connector-curvature="0"
   class="st1"
   d="M 25.385174,4.883721 C 25.639535,6.715116 25.02907,7.834302 23.960756,9.156977 22.536337,8.190407 21.569767,7.274709 21.315407,5.443314 21.061047,3.611918 21.62064,1.271802 22.688953,0 c 1.424419,0.915698 2.441861,3.052325 2.696221,4.883721 z"
   id="path1424"
   style="fill:#ee7914;stroke-width:0.50872093" /><path
   inkscape:connector-curvature="0"
   class="st1"
   d="m 19.840116,6.969477 c 1.780524,0.305232 2.696221,1.22093 3.611919,2.696221 -1.373547,1.017441 -2.543605,1.678779 -4.375,1.322674 C 17.24564,10.683139 15.210756,9.411337 14.295058,7.986918 15.719477,6.969477 18.059593,6.664244 19.840116,6.969477 Z"
   id="path1426"
   style="fill:#ee7914;stroke-width:0.50872093" /><path
   inkscape:connector-curvature="0"
   class="st1"
   d="m 20.145349,12.870639 c 0.864825,-1.627907 2.034884,-2.1875 3.662791,-2.594476 0.559593,1.627907 0.813953,2.950581 -0.05087,4.578488 -0.864825,1.627907 -2.69622,3.204942 -4.324127,3.611919 -0.559593,-1.627907 -0.152617,-3.968024 0.712209,-5.595931 z"
   id="path1428"
   style="fill:#ee7914;stroke-width:0.50872093" /><path
   inkscape:connector-curvature="0"
   class="st1"
   d="m 25.843023,14.396802 c -1.271802,-1.322674 -1.47529,-2.594477 -1.373546,-4.324128 1.678779,-0.05087 3.052325,0.152617 4.324128,1.475291 1.271802,1.322674 2.1875,3.561047 2.085755,5.239826 -1.678779,0.101744 -3.764534,-1.017442 -5.036337,-2.390989 z"
   id="path1430"
   style="fill:#ee7914;stroke-width:0.50872093" /><path
   inkscape:connector-curvature="0"
   class="st1"
   d="m 29.098837,9.462209 c -1.678779,0.813954 -2.950581,0.610465 -4.527616,-0.05087 0.508721,-1.627907 1.068314,-2.848837 2.747093,-3.662791 1.678779,-0.813953 4.069767,-1.017441 5.646802,-0.356104 -0.508721,1.627907 -2.238372,3.255814 -3.866279,4.069767 z"
   id="path1432"
   style="fill:#ee7914;stroke-width:0.50872093" /><path
   inkscape:connector-curvature="0"
   class="st1"
   d="m 28.844477,22.536337 c -0.763082,1.678779 -1.831396,2.340116 -3.459303,2.899709 -0.661337,-1.577034 -1.017441,-2.848837 -0.305232,-4.527616 0.763081,-1.678779 2.44186,-3.40843 4.069767,-3.917151 0.661338,1.526163 0.457849,3.866279 -0.305232,5.545058 z"
   id="path1436"
   style="fill:#ee7914;stroke-width:0.50872093" /><path
   inkscape:connector-curvature="0"
   class="st1"
   d="m 23.045058,21.417151 c 1.373547,1.22093 1.678779,2.492733 1.678779,4.171512 -1.678779,0.152616 -3.052325,0.101744 -4.425872,-1.119186 -1.373546,-1.220931 -2.492732,-3.357559 -2.492732,-5.036338 1.678779,-0.203488 3.866279,0.763082 5.239825,1.984012 z"
   id="path1438"
   style="fill:#ee7914;stroke-width:0.50872093" /><path
   inkscape:connector-curvature="0"
   class="st1"
   d="m 20.196221,26.606105 c 1.577035,-0.915698 2.899709,-0.813954 4.476744,-0.305233 -0.356105,1.678779 -0.864825,2.950581 -2.44186,3.866279 -1.577035,0.915698 -3.968024,1.322674 -5.595931,0.813954 0.406977,-1.67878 1.984012,-3.459303 3.561047,-4.375 z"
   id="path1440"
   style="fill:#ee7914;stroke-width:0.50872093" /><path
   inkscape:connector-curvature="0"
   class="st1"
   d="m 29.607558,28.386628 c -1.831395,-0.203489 -2.797965,-1.017442 -3.815407,-2.390989 1.271802,-1.119186 2.390989,-1.882267 4.222384,-1.678779 1.831395,0.203489 3.968023,1.271803 4.985465,2.645349 -1.271802,1.119186 -3.561047,1.627907 -5.392442,1.424419 z"
   id="path1444"
   style="fill:#ee7914;stroke-width:0.50872093" /><g
   transform="matrix(0.50872093,0,0,0.50872093,-614.22965,-193.4157)"
   id="g1452"><path
     class="st1"
     d="m 1243.8,476 c -0.1,0 -0.3,0 -0.5,0 -2,-0.2 -3,-1.2 -3.5,-2.1 -1.7,-3.1 0.2,-9.3 3.3,-16.2 -1.2,-3.3 -2.7,-7.2 -4.8,-11.8 -0.3,-0.7 -0.5,-1.2 -0.6,-1.5 -2.7,-6.4 -5.5,-12.6 -8.3,-18.6 -0.2,-0.4 0,-1 0.4,-1.2 0.4,-0.2 1,0 1.2,0.4 2.9,6 5.7,12.3 8.4,18.7 0.1,0.3 0.3,0.8 0.6,1.4 1.4,3.2 2.9,6.7 4.2,10.2 1.9,-3.9 4.1,-8 6.2,-11.7 0.4,-0.8 0.8,-1.4 1,-1.8 0.2,-0.4 0.8,-0.6 1.2,-0.4 0.4,0.2 0.6,0.8 0.4,1.2 -0.2,0.4 -0.6,1 -1,1.8 -2.9,5.1 -5.2,9.5 -6.9,13.3 2.5,7.1 3.9,13.8 1.9,16.7 -0.5,0.8 -1.5,1.6 -3.2,1.6 z m 0.2,-15.8 c -2.8,6.5 -3.7,10.8 -2.6,12.8 0.4,0.7 1,1.1 2,1.2 1.3,0.1 1.8,-0.4 2.1,-0.8 1,-1.3 1.2,-4.8 -1.5,-13.2 z"
     id="path1450"
     style="fill:#ee7914"
     inkscape:connector-curvature="0" /></g><path
   inkscape:connector-curvature="0"
   class="st1"
   d="m 24.55952,31.034525 c -0.610617,-1.730363 -0.269622,-2.972395 0.538634,-4.504952 1.549361,0.648288 2.715654,1.401856 3.326221,3.132215 0.610618,1.730378 0.518081,4.147027 -0.269113,5.633285 -1.570473,-0.60199 -3.006236,-2.483875 -3.595742,-4.260548 z"
   id="path1430-3"
   style="fill:#ee7914;stroke-width:0.50872093" /><path
   inkscape:connector-curvature="0"
   class="st1"
   d="m 14.680974,16.447304 c -1.452653,1.17079 -2.737631,1.258652 -4.423023,0.969077 0.129367,-1.700628 0.400007,-3.01615 1.852609,-4.186941 1.452601,-1.17078 3.736555,-1.906986 5.421896,-1.617412 -0.129316,1.700624 -1.44843,3.675941 -2.851482,4.835276 z"
   id="path1432-6"
   style="fill:#ee7914;stroke-width:0.50872093" /></svg>