<?xml version="1.0" encoding="UTF-8" standalone="no"?>
<svg
   xmlns:dc="http://purl.org/dc/elements/1.1/"
   xmlns:cc="http://creativecommons.org/ns#"
   xmlns:rdf="http://www.w3.org/1999/02/22-rdf-syntax-ns#"
   xmlns:svg="http://www.w3.org/2000/svg"
   xmlns="http://www.w3.org/2000/svg"
   xmlns:sodipodi="http://sodipodi.sourceforge.net/DTD/sodipodi-0.dtd"
   xmlns:inkscape="http://www.inkscape.org/namespaces/inkscape"
   xml:space="preserve"
   viewBox="0 0 300 417.73254"
   y="0px"
   x="0px"
   id="Layer_1"
   version="1.1"
   sodipodi:docname="bouquet.svg"
   width="300"
   height="417.73254"
   inkscape:version="0.92.3 (2405546, 2018-03-11)"><sodipodi:namedview
   pagecolor="#ffffff"
   bordercolor="#666666"
   borderopacity="1"
   objecttolerance="10"
   gridtolerance="10"
   guidetolerance="10"
   inkscape:pageopacity="0"
   inkscape:pageshadow="2"
   inkscape:window-width="1918"
   inkscape:window-height="1175"
   id="namedview1866"
   showgrid="false"
   fit-margin-top="0"
   fit-margin-left="0"
   fit-margin-right="0"
   fit-margin-bottom="0"
   inkscape:zoom="3.2637977"
   inkscape:cx="-21.465291"
   inkscape:cy="66.793592"
   inkscape:window-x="0"
   inkscape:window-y="23"
   inkscape:window-maximized="0"
   inkscape:current-layer="Layer_1" /><metadata
   id="metadata1909"><rdf:RDF><cc:Work
       rdf:about=""><dc:format>image/svg+xml</dc:format><dc:type
         rdf:resource="http://purl.org/dc/dcmitype/StillImage" /><dc:title></dc:title></cc:Work></rdf:RDF></metadata><defs
   id="defs1907">
	
	

		
		
	
			
			
		
				
				
				
			
					
					
					
					
						
					
				
					
					
					
					
					
				
					
					
					
					
					
						
				</defs>
<style
   id="style1382"
   type="text/css">
	.st0{fill:#465D63;}
	.st1{fill:#EE7914;}
	.st2{fill:#3C4E52;}
	.st3{clip-path:url(#SVGID_2_);}
	.st4{fill:#5EAAAA;}
	.st5{fill:#EFA21B;}
	.st6{fill:#EDB890;}
	.st7{fill:#E2AB86;}
	.st8{fill:#9A593D;}
	.st9{fill:#D89D75;}
	.st10{fill:#FFFFFF;}
	.st11{fill:#E5E1D8;}
	.st12{fill:#D6D2C9;}
	.st13{fill:#AF3922;}
	.st14{fill:#FFC248;}
	.st15{fill:#D55434;}
	.st16{fill:#582A2C;}
	.st17{fill:#FFBC00;}
	.st18{fill:#FFDC83;}
	.st19{fill:#AD6B53;}
</style>





<g
   id="g854"
   transform="scale(4.3604651)"><path
     style="fill:#ee7914"
     id="path1412"
     d="m 20.1,25.2 c 1.1,3.4 0.4,5.9 -1.2,8.8 -3.1,-1.4 -5.3,-2.8 -6.4,-6.2 -1.1,-3.4 -1,-8.1 0.7,-11.1 3,1.4 5.7,5.1 6.9,8.5 z"
     class="st1"
     inkscape:connector-curvature="0" /><path
     style="fill:#ee7914"
     id="path1414"
     d="m 10.2,31.3 c 3.6,0 5.7,1.4 8,3.9 -2.2,2.5 -4.3,4.2 -7.9,4.2 -3.6,0 -8,-1.6 -10.3,-4.1 2.2,-2.5 6.6,-4 10.2,-4 z"
     class="st1"
     inkscape:connector-curvature="0" /><path
     style="fill:#ee7914"
     id="path1416"
     d="m 12.9,42.6 c 1.1,-3.4 3.1,-5 6.1,-6.4 1.7,2.9 2.6,5.4 1.5,8.8 -1.1,3.4 -4,7.2 -7,8.6 -1.6,-2.9 -1.7,-7.5 -0.6,-11 z"
     class="st1"
     inkscape:connector-curvature="0" /><path
     style="fill:#ee7914"
     id="path1418"
     d="m 24.5,43.5 c -2.9,-2.1 -3.8,-4.5 -4.2,-7.8 3.3,-0.7 5.9,-0.8 8.9,1.3 2.9,2.1 5.6,6 6,9.3 -3.3,0.7 -7.8,-0.7 -10.7,-2.8 z"
     class="st1"
     inkscape:connector-curvature="0" /><path
     style="fill:#ee7914"
     id="path1424"
     d="m 49.9,9.6 c 0.5,3.6 -0.7,5.8 -2.8,8.4 -2.8,-1.9 -4.7,-3.7 -5.2,-7.3 -0.5,-3.6 0.6,-8.2 2.7,-10.7 2.8,1.8 4.8,6 5.3,9.6 z"
     class="st1"
     inkscape:connector-curvature="0" /><path
     style="fill:#ee7914"
     id="path1426"
     d="m 39,13.7 c 3.5,0.6 5.3,2.4 7.1,5.3 -2.7,2 -5,3.3 -8.6,2.6 -3.6,-0.6 -7.6,-3.1 -9.4,-5.9 2.8,-2 7.4,-2.6 10.9,-2 z"
     class="st1"
     inkscape:connector-curvature="0" /><path
     style="fill:#ee7914"
     id="path1428"
     d="m 39.6,25.3 c 1.7,-3.2 4,-4.3 7.2,-5.1 1.1,3.2 1.6,5.8 -0.1,9 -1.7,3.2 -5.3,6.3 -8.5,7.1 -1.1,-3.2 -0.3,-7.8 1.4,-11 z"
     class="st1"
     inkscape:connector-curvature="0" /><path
     style="fill:#ee7914"
     id="path1430"
     d="m 50.8,28.3 c -2.5,-2.6 -2.9,-5.1 -2.7,-8.5 3.3,-0.1 6,0.3 8.5,2.9 2.5,2.6 4.3,7 4.1,10.3 -3.3,0.2 -7.4,-2 -9.9,-4.7 z"
     class="st1"
     inkscape:connector-curvature="0" /><path
     style="fill:#ee7914"
     id="path1432"
     d="m 57.2,18.6 c -3.3,1.6 -5.8,1.2 -8.9,-0.1 1,-3.2 2.1,-5.6 5.4,-7.2 3.3,-1.6 8,-2 11.1,-0.7 -1,3.2 -4.4,6.4 -7.6,8 z"
     class="st1"
     inkscape:connector-curvature="0" /><path
     style="fill:#ee7914"
     id="path1436"
     d="m 56.7,44.3 c -1.5,3.3 -3.6,4.6 -6.8,5.7 -1.3,-3.1 -2,-5.6 -0.6,-8.9 1.5,-3.3 4.8,-6.7 8,-7.7 1.3,3 0.9,7.6 -0.6,10.9 z"
     class="st1"
     inkscape:connector-curvature="0" /><path
     style="fill:#ee7914"
     id="path1438"
     d="m 45.3,42.1 c 2.7,2.4 3.3,4.9 3.3,8.2 -3.3,0.3 -6,0.2 -8.7,-2.2 -2.7,-2.4 -4.9,-6.6 -4.9,-9.9 3.3,-0.4 7.6,1.5 10.3,3.9 z"
     class="st1"
     inkscape:connector-curvature="0" /><path
     style="fill:#ee7914"
     id="path1440"
     d="m 39.7,52.3 c 3.1,-1.8 5.7,-1.6 8.8,-0.6 -0.7,3.3 -1.7,5.8 -4.8,7.6 -3.1,1.8 -7.8,2.6 -11,1.6 0.8,-3.3 3.9,-6.8 7,-8.6 z"
     class="st1"
     inkscape:connector-curvature="0" /><path
     style="fill:#ee7914"
     id="path1444"
     d="m 58.2,55.8 c -3.6,-0.4 -5.5,-2 -7.5,-4.7 2.5,-2.2 4.7,-3.7 8.3,-3.3 3.6,0.4 7.8,2.5 9.8,5.2 -2.5,2.2 -7,3.2 -10.6,2.8 z"
     class="st1"
     inkscape:connector-curvature="0" /><g
     id="g1452"
     transform="translate(-1207.4,-380.2)"><path
       inkscape:connector-curvature="0"
       style="fill:#ee7914"
       id="path1450"
       d="m 1243.8,476 c -0.1,0 -0.3,0 -0.5,0 -2,-0.2 -3,-1.2 -3.5,-2.1 -1.7,-3.1 0.2,-9.3 3.3,-16.2 -1.2,-3.3 -2.7,-7.2 -4.8,-11.8 -0.3,-0.7 -0.5,-1.2 -0.6,-1.5 -2.7,-6.4 -5.5,-12.6 -8.3,-18.6 -0.2,-0.4 0,-1 0.4,-1.2 0.4,-0.2 1,0 1.2,0.4 2.9,6 5.7,12.3 8.4,18.7 0.1,0.3 0.3,0.8 0.6,1.4 1.4,3.2 2.9,6.7 4.2,10.2 1.9,-3.9 4.1,-8 6.2,-11.7 0.4,-0.8 0.8,-1.4 1,-1.8 0.2,-0.4 0.8,-0.6 1.2,-0.4 0.4,0.2 0.6,0.8 0.4,1.2 -0.2,0.4 -0.6,1 -1,1.8 -2.9,5.1 -5.2,9.5 -6.9,13.3 2.5,7.1 3.9,13.8 1.9,16.7 -0.5,0.8 -1.5,1.6 -3.2,1.6 z m 0.2,-15.8 c -2.8,6.5 -3.7,10.8 -2.6,12.8 0.4,0.7 1,1.1 2,1.2 1.3,0.1 1.8,-0.4 2.1,-0.8 1,-1.3 1.2,-4.8 -1.5,-13.2 z"
       class="st1" /></g><path
     style="fill:#ee7914"
     id="path1430-3"
     d="m 48.277,61.00501 c -1.2003,-3.4014 -0.53,-5.84288 1.0588,-8.85545 3.0456,1.27435 5.3382,2.75565 6.5384,6.15704 1.2003,3.40143 1.0184,8.15187 -0.529,11.07343 -3.0871,-1.18334 -5.9094,-4.88259 -7.0682,-8.37502 z"
     class="st1"
     inkscape:connector-curvature="0" /><path
     style="fill:#ee7914"
     id="path1432-6"
     d="m 28.8586,32.3307 c -2.8555,2.30144 -5.3814,2.47415 -8.6944,1.90493 0.2543,-3.34295 0.7863,-5.92889 3.6417,-8.23033 2.8554,-2.30142 7.345,-3.74859 10.6579,-3.17937 -0.2542,3.34294 -2.8472,7.22585 -5.6052,9.50477 z"
     class="st1"
     inkscape:connector-curvature="0" /></g></svg>