<?xml version="1.0" encoding="utf-8"?>
<!-- Generator: Adobe Illustrator 21.0.2, SVG Export Plug-In . SVG Version: 6.00 Build 0)  -->
<!DOCTYPE svg PUBLIC "-//W3C//DTD SVG 1.1//EN" "http://www.w3.org/Graphics/SVG/1.1/DTD/svg11.dtd">
<svg version="1.1" id="Layer_1" xmlns="http://www.w3.org/2000/svg" xmlns:xlink="http://www.w3.org/1999/xlink" x="0px" y="0px"
	 viewBox="0 0 470.5 95.9" style="enable-background:new 0 0 470.5 95.9;" xml:space="preserve">
<style type="text/css">
	.st0{fill:#465D63;}
	.st1{fill:#EE7914;}
</style>
<g>
	<g>
		<path class="st0" d="M451,18.9c1.6,0,1.9,0.5,1.9,1.9v11h15.6c1.3,0,1.9,0.6,1.9,1.9v2.8c0,1.3-0.6,1.9-1.9,1.9H453v28
			c0,6.2,1.1,10.3,3.2,12.3c2.1,2,6.1,3,12.2,3c1.3,0,1.9,0.6,1.9,2v2.9c0,1.4-0.5,1.9-1.9,1.9c-8.4,0.1-14.2-1.3-17.5-4.5
			c-3.3-3.1-5.1-8.9-5.1-17.4V38.5h-10.2c-1.3,0-1.9-0.6-1.9-1.9v-2.8c0-1.3,0.6-1.9,1.9-1.9h10.2v-11c0-1.3,0.6-1.9,1.9-1.9H451z"
			/>
		<g>
			<path class="st0" d="M105.7,30.3c-4.6,0-10.3,1.1-17,3.3V9.5c0-1.3-0.6-1.9-1.9-1.9h-3.4c-1.3,0-1.9,0.6-1.9,1.9v70.1
				c0,3.4,0.8,4.3,4.2,5.9c4.7,2.1,10.8,3.2,18.2,3.2c15.4,0,23.1-7.3,23.1-22.1V51.3C126.9,37.3,119.8,30.3,105.7,30.3z
				 M119.7,66.5c0,10.4-5.5,15.6-16.5,15.6c-4.8,0-9-0.8-12.6-2.2c-1.7-0.8-1.9-1.1-1.9-2.8V40.4c5.5-2.3,10.9-3.4,16-3.4
				c10,0,15,4.8,15,14.6V66.5z"/>
			<path class="st0" d="M161.2,30.3c-14.7,0-23.6,7.4-23.6,19.8V69c0,12.2,8.9,19.7,23.6,19.7C176,88.7,185,81.4,185,69V50.1
				C185,37.7,176,30.3,161.2,30.3z M177.7,69c0,8.2-6.2,13.1-16.5,13.1c-9.9,0-16.4-4.9-16.4-13.1V50.1c0-8.2,6.3-13.2,16.4-13.2
				c10.2,0,16.5,5.1,16.5,13.2V69z"/>
			<path class="st0" d="M240.6,31.9h-3.4c-1.3,0-1.9,0.6-1.9,1.9v43c0,1.4-0.6,2.5-1.9,3c-4,1.6-8.6,2.4-14,2.4
				c-10,0-15.1-4.9-15.1-14.7V33.8c0-1.4-0.3-1.9-1.9-1.9h-3.3c-1.4,0-1.9,0.5-1.9,1.9v33.9c0,14,7.1,21,21.3,21
				c7.6,0,14.4-1.2,20.1-3.6c3.3-1.4,4.1-2.6,4.1-5.9V33.8C242.5,32.5,241.9,31.9,240.6,31.9z"/>
			<path class="st0" d="M367.8,31.9h-3.4c-1.3,0-1.9,0.6-1.9,1.9v43c0,1.4-0.6,2.5-1.9,3c-4,1.6-8.6,2.4-14,2.4
				c-10,0-15.1-4.9-15.1-14.7V33.8c0-1.4-0.3-1.9-1.9-1.9h-3.3c-1.4,0-1.9,0.5-1.9,1.9v33.9c0,14,7.1,21,21.3,21
				c7.6,0,14.4-1.2,20.1-3.6c3.3-1.4,4.1-2.6,4.1-5.9V33.8C369.7,32.5,369.1,31.9,367.8,31.9z"/>
			<path class="st0" d="M426.1,61.5c2.2,0,3.2-1,3.2-3v-5.9c0-13.4-8.3-22.3-23.9-22.3c-15.5,0-23.8,8.4-23.8,22.7v14
				c0,13.5,7.7,21.8,23.3,21.8c11.1,0,18.7-3.9,23-11.6c0.9-1.4,0.6-2.4-0.8-3.1l-2.3-1.2c-1.2-0.6-2.3-0.4-3.1,0.8
				c-3.3,5.9-8.9,8.9-16.9,8.9c-10.4,0-16.1-5.4-16.1-14.7v-6.2H426.1z M388.9,52.1c0-9.8,5.8-15.6,16.6-15.6
				c10.9,0,16.7,5.8,16.7,15.6v3.8h-33.3V52.1z"/>
			<g>
				<path class="st0" d="M315,83.7c-0.2-0.4-0.6-0.7-1.1-0.8H298v-0.2c8.4-3.7,13.6-13.7,13.6-23.5c0-16.7-12.4-29.5-28.8-29.5
					c-16.4,0-28.8,12.8-28.8,29.5c0,16.7,12.4,29.5,28.8,29.5h30.9c0.6-0.1,1-0.4,1.2-0.8c0.1-0.3,0.2-0.6,0.2-0.9v-2.5
					C315.1,84.3,315.1,84,315,83.7z M261.2,59.3c0-12.9,9.1-23.2,21.7-23.2c12.6,0,21.6,10.3,21.6,23.2c0,13-9.3,23.2-21.6,23.2
					C270.5,82.5,261.2,72.3,261.2,59.3z"/>
			</g>
			<polygon class="st0" points="313.8,82.9 298,82.9 298,82.9 			"/>
		</g>
	</g>
	<g>
		<g>
			<g>
				<path class="st1" d="M20.1,25.3c1.1,3.4,0.4,5.9-1.2,8.8c-3.1-1.4-5.3-2.8-6.4-6.2s-1-8.1,0.7-11.1C16.2,18.2,19,21.9,20.1,25.3
					z"/>
				<path class="st1" d="M10.3,31.4c3.6,0,5.7,1.4,8,3.9c-2.2,2.5-4.3,4.2-7.9,4.2s-8-1.6-10.3-4.1C2.2,32.9,6.6,31.4,10.3,31.4z"/>
				<path class="st1" d="M13,42.7c1.1-3.4,3.1-5,6.1-6.4c1.7,2.9,2.6,5.4,1.5,8.8c-1.1,3.4-4,7.2-7,8.6C12,50.8,11.9,46.2,13,42.7z"
					/>
				<path class="st1" d="M24.6,43.6c-2.9-2.1-3.8-4.5-4.2-7.8c3.3-0.7,5.9-0.8,8.9,1.3c2.9,2.1,5.6,6,6,9.3
					C32,47.1,27.5,45.7,24.6,43.6z"/>
				
					<image style="overflow:visible;" width="16" height="12" xlink:href="89C98419DC8FDA23.png"  transform="matrix(1 0 0 1 19.6861 22.9045)">
				</image>
			</g>
			<g>
				<path class="st1" d="M49.9,9.7c0.5,3.6-0.7,5.8-2.8,8.4c-2.8-1.9-4.7-3.7-5.2-7.3S42.5,2.6,44.7,0C47.4,1.9,49.5,6.1,49.9,9.7z"
					/>
				<path class="st1" d="M39.1,13.8c3.5,0.6,5.3,2.4,7.1,5.3c-2.7,2-5,3.3-8.6,2.6c-3.6-0.6-7.6-3.1-9.4-5.9
					C30.9,13.8,35.5,13.2,39.1,13.8z"/>
				<path class="st1" d="M39.7,25.4c1.7-3.2,4-4.3,7.2-5.1c1.1,3.2,1.6,5.8-0.1,9c-1.7,3.2-5.3,6.3-8.5,7.1
					C37.2,33.2,38,28.6,39.7,25.4z"/>
				<path class="st1" d="M50.9,28.4c-2.5-2.6-2.9-5.1-2.7-8.5c3.3-0.1,6,0.3,8.5,2.9s4.3,7,4.1,10.3C57.5,33.3,53.4,31.1,50.9,28.4z
					"/>
				<path class="st1" d="M57.3,18.7c-3.3,1.6-5.8,1.2-8.9-0.1c1-3.2,2.1-5.6,5.4-7.2s8-2,11.1-0.7C63.9,13.9,60.5,17.1,57.3,18.7z"
					/>
			</g>
			<g>
				<path class="st1" d="M56.8,44.4c-1.5,3.3-3.6,4.6-6.8,5.7c-1.3-3.1-2-5.6-0.6-8.9c1.5-3.3,4.8-6.7,8-7.7
					C58.7,36.5,58.2,41.1,56.8,44.4z"/>
				<path class="st1" d="M45.4,42.2c2.7,2.4,3.3,4.9,3.3,8.2c-3.3,0.3-6,0.2-8.7-2.2c-2.7-2.4-4.9-6.6-4.9-9.9
					C38.4,37.9,42.7,39.8,45.4,42.2z"/>
				<path class="st1" d="M39.8,52.4c3.1-1.8,5.7-1.6,8.8-0.6c-0.7,3.3-1.7,5.8-4.8,7.6S36,62,32.8,61C33.6,57.7,36.6,54.2,39.8,52.4
					z"/>
				
					<image style="overflow:visible;" width="10" height="19" xlink:href="89C98419DC8FDA21.png"  transform="matrix(1 0 0 1 46.6861 51.9045)">
				</image>
				<path class="st1" d="M58.3,55.9c-3.6-0.4-5.5-2-7.5-4.7c2.5-2.2,4.7-3.7,8.3-3.3s7.8,2.5,9.8,5.2C66.4,55.3,61.9,56.3,58.3,55.9
					z"/>
			</g>
		</g>
		<g>
			<path class="st1" d="M36.5,95.9c-0.1,0-0.3,0-0.5,0c-2-0.2-3-1.2-3.5-2.1c-1.7-3.1,0.2-9.3,3.3-16.2c-1.2-3.3-2.7-7.2-4.8-11.8
				c-0.3-0.7-0.5-1.2-0.6-1.5c-2.7-6.4-5.5-12.6-8.3-18.6c-0.2-0.4,0-1,0.4-1.2c0.4-0.2,1,0,1.2,0.4c2.9,6,5.7,12.3,8.4,18.7
				c0.1,0.3,0.3,0.8,0.6,1.4c1.4,3.2,2.9,6.7,4.2,10.2c1.9-3.9,4.1-8,6.2-11.7c0.4-0.8,0.8-1.4,1-1.8c0.2-0.4,0.8-0.6,1.2-0.4
				c0.4,0.2,0.6,0.8,0.4,1.2c-0.2,0.4-0.6,1-1,1.8c-2.9,5.1-5.2,9.5-6.9,13.3c2.5,7.1,3.9,13.8,1.9,16.7
				C39.2,95.1,38.2,95.9,36.5,95.9z M36.7,80.1c-2.8,6.5-3.7,10.8-2.6,12.8c0.4,0.7,1,1.1,2,1.2c1.3,0.1,1.8-0.4,2.1-0.8
				C39.2,92,39.4,88.5,36.7,80.1z"/>
		</g>
	</g>
</g>
</svg>
