<?xml version="1.0" encoding="UTF-8" standalone="no"?>
<svg
   xmlns:dc="http://purl.org/dc/elements/1.1/"
   xmlns:cc="http://creativecommons.org/ns#"
   xmlns:rdf="http://www.w3.org/1999/02/22-rdf-syntax-ns#"
   xmlns:svg="http://www.w3.org/2000/svg"
   xmlns="http://www.w3.org/2000/svg"
   xmlns:sodipodi="http://sodipodi.sourceforge.net/DTD/sodipodi-0.dtd"
   xmlns:inkscape="http://www.inkscape.org/namespaces/inkscape"
   width="692.77301"
   height="477.62122"
   viewBox="0 0 692.77302 477.62122"
   version="1.1"
   id="svg44"
   sodipodi:docname="dead.svg"
   inkscape:version="0.92.3 (2405546, 2018-03-11)">
  <metadata
     id="metadata50">
    <rdf:RDF>
      <cc:Work
         rdf:about="">
        <dc:format>image/svg+xml</dc:format>
        <dc:type
           rdf:resource="http://purl.org/dc/dcmitype/StillImage" />
        <dc:title></dc:title>
      </cc:Work>
    </rdf:RDF>
  </metadata>
  <defs
     id="defs48" />
  <sodipodi:namedview
     pagecolor="#ffffff"
     bordercolor="#666666"
     borderopacity="1"
     objecttolerance="10"
     gridtolerance="10"
     guidetolerance="10"
     inkscape:pageopacity="0"
     inkscape:pageshadow="2"
     inkscape:window-width="1918"
     inkscape:window-height="526"
     id="namedview46"
     showgrid="false"
     showguides="true"
     inkscape:guide-bbox="true"
     inkscape:zoom="0.70710678"
     inkscape:cx="-100.40577"
     inkscape:cy="116.34894"
     inkscape:window-x="1920"
     inkscape:window-y="552"
     inkscape:window-maximized="0"
     inkscape:current-layer="svg44"
     fit-margin-top="50"
     fit-margin-left="50"
     fit-margin-right="0"
     fit-margin-bottom="0">
    <sodipodi:guide
       position="83.494449,418.5508"
       orientation="1,0"
       id="guide110"
       inkscape:locked="false" />
    <sodipodi:guide
       position="256.13637,390.04555"
       orientation="0,1"
       id="guide112"
       inkscape:locked="false" />
  </sodipodi:namedview>
  <path
     style="fill:#364548;fill-rule:evenodd;stroke:none;stroke-width:2.52734447"
     inkscape:connector-curvature="0"
     id="path4"
     d="m 453.3509,217.35232 h 29.22057 c 13.49362,0 27.37299,2.40392 40.15192,6.73395 6.27914,2.12915 13.32711,5.09209 19.52101,8.81843 -8.1579,10.65114 -12.32281,24.10009 -13.54912,37.35682 -1.66487,18.03073 1.97213,41.50005 14.1758,55.61223 l 6.07477,7.02631 7.23882,-5.81894 c 18.22564,-14.64278 33.55333,-35.10315 36.25501,-58.42763 21.94524,6.45512 47.71017,4.9283 67.05385,-6.23584 l 7.93592,-4.57909 -4.17709,-8.15245 C 646.89328,217.7584 612.69296,207.86795 579.25604,209.61811 529.22183,84.99884 420.29161,26 288.21426,26 219.97874,26 157.37403,51.50778 121.72406,112.04831 l -0.58474,0.98809 -5.1936,10.56724 c -12.05072,26.64882 -16.053182,55.84234 -13.33795,85.01148 l 0.81484,8.7372 h 49.41701"
     sodipodi:nodetypes="cscccccccccccscccccc" />
  <path
     style="fill:#22a0c8;fill-rule:evenodd;stroke:none;stroke-width:2.52734447"
     inkscape:connector-curvature="0"
     id="path6"
     d="m 582.79288,254.57379 c 3.87524,30.11393 -18.66148,53.76869 -32.6383,64.99914 -16.10598,-18.62086 -18.60871,-67.42335 6.65951,-87.97036 -14.10138,-12.52581 -43.81736,-23.87945 -74.24262,-23.87945 H 112.20179 c -2.95888,-31.7612 2.61777,-61.00886 15.35204,-86.04426 l 4.21362,-7.7058 c 2.66786,-4.52764 5.58207,-8.89692 8.73179,-13.10377 h 0.001 c 15.22616,-0.97727 29.26525,-1.31565 42.10916,-1.03141 h 0.005 c 25.24111,0.55902 45.83549,3.53684 61.4447,8.94566 2.32406,0.80808 4.85657,-0.42502 5.66058,-2.74637 0.80267,-2.32136 -0.42637,-4.85522 -2.74772,-5.66058 -2.075,-0.71874 -4.23934,-1.39146 -6.47406,-2.03033 -0.002,-0.001 -0.005,-0.001 -0.009,-0.002 -12.29029,-3.50841 -25.46852,-5.87035 -42.47326,-6.91936 1.0084,-0.0152 -1.05171,-0.15165 -1.05713,-0.1529 -0.57797,-0.0351 -1.30617,-0.11784 -1.88686,-0.15013 -6.6919,-0.37537 -13.91584,-0.45387 -21.30084,-0.45387 -8.07667,0 -16.03152,0.15291 -24.92439,0.60368 L 148.6202,91.1216 c 30.85975,-34.6849 79.11133,-55.4877 139.59369,-55.4877 128.00585,0 236.58142,56.74378 284.65975,184.13651 34.11098,-3.50029 66.8928,5.19765 81.80494,34.30725 -23.75358,13.70746 -54.29796,9.33685 -71.88607,0.49675" />
  <path
     style="fill:#37b1d9;fill-rule:evenodd;stroke:none;stroke-width:2.52734447"
     inkscape:connector-curvature="0"
     id="path8"
     d="m 582.79288,254.57379 c 3.87524,30.11393 -18.66148,53.76869 -32.6383,64.99914 -16.10598,-18.62086 -18.60871,-67.42335 6.65951,-87.97036 -14.10138,-12.52581 -43.81736,-23.87945 -74.24262,-23.87945 h -348.438 c -1.51193,-48.64141 16.53911,-85.56373 48.47628,-107.88524 h 0.005 c 25.24112,0.55902 45.8355,3.53684 61.44471,8.94566 2.32406,0.80808 4.85657,-0.42502 5.66057,-2.74637 0.80267,-2.32136 -0.42636,-4.85522 -2.74771,-5.66058 -2.075,-0.71874 -4.23934,-1.39146 -6.47406,-2.03033 -0.002,-0.001 -0.005,-0.001 -0.009,-0.002 -12.29029,-3.50841 -26.60146,-6.17358 -43.60619,-7.22257 -0.004,0 -0.41148,0.39388 -0.41689,0.39251 43.56287,-22.34587 106.73067,-22.266 179.15137,5.55367 81.20529,31.19541 156.7676,90.63009 209.49269,158.60843 -0.79589,-0.35869 -1.57012,-0.72687 -2.31864,-1.10181" />
  <path
     style="fill:#1b81a5;fill-rule:evenodd;stroke:none;stroke-width:2.52734447"
     inkscape:connector-curvature="0"
     id="path10"
     d="m 112.89481,169.13322 c 2.3024,-17.01286 7.27807,-32.94287 14.65902,-47.45436 l 4.21362,-7.7058 c 2.66786,-4.52764 5.58207,-8.89692 8.73315,-13.10377 15.22886,-0.97727 29.26931,-1.31565 42.11457,-1.03141 25.24112,0.55902 45.83549,3.53684 61.4447,8.94566 2.32407,0.80808 4.85656,-0.42502 5.66058,-2.74635 0.80266,-2.32138 -0.42636,-4.85524 -2.74773,-5.6606 -2.075,-0.71872 -4.23932,-1.39146 -6.47406,-2.03031 -0.002,-10e-4 -0.005,-10e-4 -0.009,-0.002 -12.2903,-3.50841 -26.52566,-6.02196 -43.53039,-7.07232 -0.58338,-0.0351 -1.60126,-0.0419 -2.19006,-0.0746 -6.68928,-0.37629 -13.83876,-0.60501 -21.22512,-0.60501 -8.07532,0 -16.33337,0.15417 -25.22488,0.60501 30.85838,-34.68489 79.41182,-55.56348 139.89416,-55.56348 109.5853,0 204.92714,41.59478 260.26325,133.49994 H 112.89481" />
  <path
     style="fill:#1d91b4;fill-rule:evenodd;stroke:none;stroke-width:2.52734447"
     inkscape:connector-curvature="0"
     id="path12"
     d="m 137.46728,169.13322 c 6.55121,-29.87165 22.29443,-53.32338 45.14789,-69.29534 25.24112,0.55902 45.83549,3.53684 61.4447,8.94566 2.32407,0.80808 4.85656,-0.42502 5.66058,-2.74637 0.80266,-2.32136 -0.42636,-4.85522 -2.74773,-5.66058 -2.075,-0.71874 -4.23932,-1.39146 -6.47406,-2.03033 -0.002,-0.001 -0.005,-0.001 -0.009,-0.002 -12.2903,-3.50841 -26.8275,-6.02196 -43.83223,-7.07233 43.56016,-22.3418 106.54522,-22.02103 178.96051,5.79594 43.80921,16.83148 85.97252,41.88851 123.80037,72.06607 H 137.46728" />
  <path
     style="fill:#ff628e;fill-opacity:1;stroke:#364548;stroke-width:2.82217598;stroke-linecap:butt;stroke-linejoin:miter;stroke-miterlimit:4;stroke-dasharray:none;stroke-opacity:1"
     d="m 157.7077,99.55986 c 0.10104,35.73913 14.43675,33.43304 20.09663,-0.0634"
     id="path1107"
     inkscape:connector-curvature="0"
     sodipodi:nodetypes="cc" />
  <g
     id="g1073"
     transform="matrix(2.4649248,0.61913854,-0.55822537,2.4511299,432.18792,441.7667)">
    <rect
       y="-51.034443"
       x="-113.35788"
       height="21.978285"
       width="21.75053"
       id="rect1010-5"
       style="opacity:1;fill:#364548;fill-opacity:1;stroke-width:1.75341916" />
    <path
       d="m -112.33298,-30.194924 h 19.816973 v -19.818044 h -19.816973 z m 1.65061,-1.65168 h 1.56385 v -16.515753 h -1.56385 z m 2.94026,0 h 1.6265 v -16.515753 h -1.6265 z m 3.00184,0 h 1.62651 v -16.515753 h -1.62651 z m 3.00344,0 h 1.62651 v -16.515753 h -1.62651 z m 3.002915,0 h 1.626511 v -16.515753 h -1.626511 z m 3.002377,0 h 1.564921 v -16.515753 h -1.564921 z"
       id="path14"
       inkscape:connector-curvature="0"
       style="fill:#23a3c2;fill-rule:evenodd;stroke:none;stroke-width:1" />
  </g>
  <g
     id="g1105"
     transform="matrix(2.3569637,-0.91224548,0.91224548,2.3569637,390.37137,351.39265)">
    <rect
       y="-24.982283"
       x="-60.880463"
       height="21.978285"
       width="21.75053"
       id="rect1010-3"
       style="opacity:1;fill:#364548;fill-opacity:1;stroke-width:1.75341916" />
    <path
       d="m -59.860056,-4.1404252 h 19.819113 V -23.957395 h -19.819113 z m 1.652753,-1.65168 h 1.562778 V -22.306245 h -1.562778 z m 2.940251,0 h 1.625439 V -22.306245 h -1.625439 z m 3.001306,0 h 1.62651 V -22.306245 h -1.62651 z m 3.002912,0 h 1.62651 V -22.306245 h -1.62651 z m 3.003447,0 h 1.626511 V -22.306245 h -1.626511 z m 3.001841,0 h 1.565992 V -22.306245 h -1.565992 z"
       id="path16"
       inkscape:connector-curvature="0"
       style="fill:#23a3c2;fill-rule:evenodd;stroke:none;stroke-width:1" />
  </g>
  <g
     id="g1077"
     transform="matrix(2.5181208,0.2157251,-0.2157251,2.5181208,388.55082,375.62869)">
    <rect
       y="-47.828392"
       x="-60.924263"
       height="21.978285"
       width="21.75053"
       id="rect1010"
       style="opacity:1;fill:#364548;fill-opacity:1;stroke-width:1.75341916" />
    <path
       d="m -59.860056,-27.006365 h 19.819113 v -19.818044 h -19.819113 z m 1.652753,-1.65168 h 1.562778 v -16.515753 h -1.562778 z m 2.940251,0 h 1.625439 v -16.515753 h -1.625439 z m 3.001306,0 h 1.62651 v -16.515753 h -1.62651 z m 3.002912,0 h 1.62651 v -16.515753 h -1.62651 z m 3.003447,0 h 1.626511 v -16.515753 h -1.626511 z m 3.001841,0 h 1.565992 v -16.515753 h -1.565992 z"
       id="path18"
       inkscape:connector-curvature="0"
       style="fill:#34bbde;fill-rule:evenodd;stroke:none;stroke-width:1" />
  </g>
  <g
     id="g1081"
     transform="matrix(2.496062,-0.39641407,0.39641407,2.496062,416.86395,351.63021)">
    <rect
       y="-47.799522"
       x="-38.017925"
       height="21.978285"
       width="21.75053"
       id="rect1010-6"
       style="opacity:1;fill:#364548;fill-opacity:1;stroke-width:1.75341916" />
    <path
       d="m -36.993039,-27.006365 h 19.818042 v -19.818044 h -19.818042 z m 1.65168,-1.65168 h 1.56278 v -16.515753 h -1.56278 z m 2.93971,0 h 1.62651 v -16.515753 h -1.62651 z m 3.00291,0 h 1.62652 v -16.515753 h -1.62652 z m 3.002922,0 h 1.62651 v -16.515753 h -1.62651 z m 3.00237,0 h 1.62758 v -16.515753 h -1.62758 z m 3.00292,0 h 1.56385 v -16.515753 h -1.56385 z"
       id="path20"
       inkscape:connector-curvature="0"
       style="fill:#23a3c2;fill-rule:evenodd;stroke:none;stroke-width:1" />
  </g>
  <g
     id="g1101"
     transform="matrix(2.4857215,0.45679163,-0.45679163,2.4857215,382.74729,388.38273)">
    <rect
       y="-24.982283"
       x="-38.014515"
       height="21.978285"
       width="21.75053"
       id="rect1010-56"
       style="opacity:1;fill:#364548;fill-opacity:1;stroke-width:1.75341916" />
    <path
       d="m -36.993039,-4.1404252 h 19.818042 V -23.957395 h -19.818042 z m 1.65168,-1.65168 h 1.56278 V -22.306245 h -1.56278 z m 2.93971,0 h 1.62651 V -22.306245 h -1.62651 z m 3.00291,0 h 1.62652 V -22.306245 h -1.62652 z m 3.002922,0 h 1.62651 V -22.306245 h -1.62651 z m 3.00237,0 h 1.62758 V -22.306245 h -1.62758 z m 3.00292,0 h 1.56385 V -22.306245 h -1.56385 z"
       id="path22"
       inkscape:connector-curvature="0"
       style="fill:#34bbde;fill-rule:evenodd;stroke:none;stroke-width:1" />
  </g>
  <g
     id="g1085"
     transform="matrix(2.509792,0.29734429,-0.29734429,2.509792,398.79312,355.22595)">
    <rect
       y="-47.771431"
       x="-15.188297"
       height="21.978285"
       width="21.75053"
       id="rect1010-7"
       style="opacity:1;fill:#364548;fill-opacity:1;stroke-width:1.75341916" />
    <path
       d="M -14.126567,-27.006365 H 5.6909431 V -46.824409 H -14.126567 Z m 1.65168,-1.65168 h 1.56332 v -16.515753 h -1.56332 z m 2.9402601,0 h 1.62651 v -16.515753 h -1.62651 z m 3.00184,0 h 1.62651 v -16.515753 h -1.62651 z m 3.00344,0 h 1.62651 v -16.515753 h -1.62651 z m 3.00291995,0 H 1.1000831 v -16.515753 h -1.62651005 z m 3.00237005,0 h 1.56439 v -16.515753 h -1.56439 z"
       id="path24"
       inkscape:connector-curvature="0"
       style="fill:#34bbde;fill-rule:evenodd;stroke:none;stroke-width:1" />
  </g>
  <g
     id="g1093"
     transform="matrix(2.522664,-0.15373959,0.15373959,2.522664,422.5221,383.99746)">
    <rect
       y="-24.996012"
       x="-15.07442"
       height="21.978285"
       width="21.75053"
       id="rect1010-2"
       style="opacity:1;fill:#364548;fill-opacity:1;stroke-width:1.75341916" />
    <path
       d="M -14.126567,-4.1404252 H 5.6909431 V -23.957395 H -14.126567 Z m 1.65168,-1.65168 h 1.56332 V -22.306245 h -1.56332 z m 2.9402601,0 h 1.62651 V -22.306245 h -1.62651 z m 3.00184,0 h 1.62651 V -22.306245 h -1.62651 z m 3.00344,0 h 1.62651 V -22.306245 h -1.62651 z m 3.00291995,0 H 1.1000831 V -22.306245 h -1.62651005 z m 3.00237005,0 h 1.56439 V -22.306245 h -1.56439 z"
       id="path26"
       inkscape:connector-curvature="0"
       style="fill:#23a3c2;fill-rule:evenodd;stroke:none;stroke-width:1" />
  </g>
  <g
     id="g1097"
     transform="matrix(2.4482395,0.62736969,-0.62736969,2.4482395,396.25182,401.06126)">
    <rect
       y="-2.2205875"
       x="-15.07442"
       height="21.978285"
       width="21.75053"
       id="rect1010-9"
       style="opacity:1;fill:#364548;fill-opacity:1;stroke-width:1.75341916" />
    <path
       d="M -14.126567,18.726055 H 5.6909431 V -1.0919952 H -14.126567 Z m 1.65168,-1.65061 h 1.56332 V 0.55969476 h -1.56332 z m 2.9402601,0 h 1.62651 V 0.55969476 h -1.62651 z m 3.00184,0 h 1.62651 V 0.55969476 h -1.62651 z m 3.00344,0 h 1.62651 V 0.55969476 h -1.62651 z m 3.00291995,0 H 1.1000831 V 0.55969476 h -1.62651005 z m 3.00237005,0 h 1.56439 V 0.55969476 h -1.56439 z"
       id="path28"
       inkscape:connector-curvature="0"
       style="fill:#34bbde;fill-rule:evenodd;stroke:none;stroke-width:1" />
  </g>
  <g
     id="g1089"
     transform="matrix(2.4714479,-0.52859681,0.52859681,2.4714479,437.67929,381.12167)">
    <rect
       y="-47.885326"
       x="7.8005824"
       height="21.978285"
       width="21.75053"
       id="rect1010-1"
       style="opacity:1;fill:#364548;fill-opacity:1;stroke-width:1.75341916" />
    <path
       d="M 8.7393731,-27.006365 H 28.557423 V -46.824409 H 8.7393731 Z m 1.6506099,-1.65168 h 1.56492 v -16.515753 h -1.56492 z m 2.94026,0 h 1.62651 v -16.515753 h -1.62651 z m 3.00344,0 h 1.62651 v -16.515753 h -1.62651 z m 3.00184,0 h 1.62652 v -16.515753 h -1.62652 z m 3.00399,0 h 1.62597 v -16.515753 h -1.62597 z m 3.00237,0 h 1.56385 v -16.515753 h -1.56385 z"
       id="path30"
       inkscape:connector-curvature="0"
       style="fill:#23a3c2;fill-rule:evenodd;stroke:none;stroke-width:1" />
  </g>
  <path
     style="fill:#bdd9d7;fill-rule:evenodd;stroke:none;stroke-width:2.52734447"
     inkscape:connector-curvature="0"
     id="path38"
     d="m 303.94395,35.93242 c -34.21928,16.23861 -53.0026,38.31241 -63.45341,62.41112 -12.70989,-3.62886 -27.9902,-5.94752 -45.74345,-6.94372 -6.68792,-0.37494 -13.72236,-0.56714 -21.106,-0.56714 -8.51117,0 -17.47984,0.25172 -26.89518,0.75119 31.38086,-31.36189 69.987,-55.50934 141.46835,-55.95059 5.2775,0 10.51714,0.10292 15.72969,0.29914" />
  <path
     style="fill:#d3ecec;fill-rule:evenodd;stroke:none;stroke-width:2.52734447"
     inkscape:connector-curvature="0"
     id="path40"
     d="m 253.20179,76.10733 c -4.73474,6.42668 -9.32736,14.50335 -12.70313,22.23893 -12.71259,-3.63025 -27.99561,-5.95024 -45.75157,-6.94644 12.19555,-6.62026 29.63884,-12.75457 58.4547,-15.29249" />
  <path
     style="fill:#364548;fill-rule:evenodd;stroke:none;stroke-width:2.52734447"
     inkscape:connector-curvature="0"
     id="path36"
     d="m 50,150.26088 h 642.773 c -13.99578,-3.55037 -44.2816,-8.34602 -39.28699,-26.68807 -25.44821,29.44798 -86.8212,20.65933 -102.30992,6.13837 -17.2484,25.01645 -117.65928,15.5077 -124.6626,-3.9808 -21.62308,25.37648 -88.62685,25.37648 -110.25126,0 -7.00602,19.4885 -107.41557,28.99725 -124.66529,3.9808 -15.48875,14.52096 -76.85631,23.30961 -102.307243,-6.13837 C 94.284321,141.91486 63.99849,146.71051 50,150.26088" />
  <text
     xml:space="preserve"
     style="font-style:normal;font-weight:normal;font-size:44.55148697px;line-height:1.25;font-family:sans-serif;letter-spacing:0px;word-spacing:0px;fill:#364548;fill-opacity:1;stroke:none;stroke-width:1.11378729"
     x="-137.05829"
     y="284.50696"
     id="text116"
     transform="rotate(-90)"><tspan
       sodipodi:role="line"
       id="tspan114"
       x="-137.05829"
       y="284.50696"
       style="fill:#364548;fill-opacity:1;stroke-width:1.11378729">X</tspan></text>
</svg>
