<?xml version="1.0" encoding="UTF-8" standalone="no"?>
<svg
   xmlns:dc="http://purl.org/dc/elements/1.1/"
   xmlns:cc="http://creativecommons.org/ns#"
   xmlns:rdf="http://www.w3.org/1999/02/22-rdf-syntax-ns#"
   xmlns:svg="http://www.w3.org/2000/svg"
   xmlns="http://www.w3.org/2000/svg"
   xmlns:xlink="http://www.w3.org/1999/xlink"
   xmlns:sodipodi="http://sodipodi.sourceforge.net/DTD/sodipodi-0.dtd"
   xmlns:inkscape="http://www.inkscape.org/namespaces/inkscape"
   xml:space="preserve"
   viewBox="0 0 869.29127 302.36219"
   y="0px"
   x="0px"
   id="Layer_1"
   version="1.1"
   sodipodi:docname="docker_chez_bouquet.svg"
   width="23cm"
   height="8cm"
   inkscape:version="0.92.4 5da689c313, 2019-01-14"><sodipodi:namedview
   pagecolor="#ffffff"
   bordercolor="#666666"
   borderopacity="1"
   objecttolerance="10"
   gridtolerance="10"
   guidetolerance="10"
   inkscape:pageopacity="0"
   inkscape:pageshadow="2"
   inkscape:window-width="1920"
   inkscape:window-height="1080"
   id="namedview1866"
   showgrid="false"
   fit-margin-top="0"
   fit-margin-left="0"
   fit-margin-right="3"
   fit-margin-bottom="0"
   inkscape:zoom="0.5"
   inkscape:cx="346.71634"
   inkscape:cy="610.90827"
   inkscape:window-x="0"
   inkscape:window-y="0"
   inkscape:window-maximized="0"
   inkscape:current-layer="Layer_1"
   inkscape:document-units="cm"
   units="cm"
   showguides="true"
   inkscape:guide-bbox="true"
   inkscape:snap-global="true"><sodipodi:guide
     position="2.665065,3.2148922"
     orientation="0,1"
     id="guide995"
     inkscape:locked="false" /><sodipodi:guide
     position="63.185764,-0.048233994"
     orientation="0,1"
     id="guide997"
     inkscape:locked="false" /><sodipodi:guide
     position="8.402665,1.60393"
     orientation="0,1"
     id="guide1003"
     inkscape:locked="false" /><sodipodi:guide
     position="717.99996,-161.99999"
     orientation="1,0"
     id="guide877"
     inkscape:locked="false" /></sodipodi:namedview><metadata
   id="metadata1909"><rdf:RDF><cc:Work
       rdf:about=""><dc:format>image/svg+xml</dc:format><dc:type
         rdf:resource="http://purl.org/dc/dcmitype/StillImage" /><dc:title></dc:title></cc:Work></rdf:RDF></metadata><defs
   id="defs1907">
	
	

		
		
	
			
			
		
				
				
				
			
					
					
					
					
						
					
				
					
					
					
					
					
				
					
					
					
					
					
						
				<clipPath
   id="clipPath8"><path
     inkscape:connector-curvature="0"
     d="M 76,2 V 48 H 54 V 71 H 35.580737 c -0.07818,0.665694 -0.141485,1.332869 -0.205737,2 -1.151162,12.530963 1.036422,24.087546 6.0625,33.96875 L 43.125,110 c 1.011403,1.81678 2.191241,3.52297 3.4375,5.1875 1.244725,1.66248 1.685716,2.58262 2.46875,3.6875 C 62.319911,133.81083 82.129473,141 105,141 155.64836,141 198.63299,118.56201 217.65625,68.15625 231.15302,69.54122 244.09968,66.080358 250,54.5625 240.60137,49.138835 228.52163,50.877226 221.5625,54.375 L 240,2 168,48 H 145 V 2 Z"
     id="path10" /></clipPath><clipPath
   id="clipPath857"><path
     inkscape:connector-curvature="0"
     d="M 76,2 V 48 H 54 V 71 H 35.580737 c -0.07818,0.665694 -0.141485,1.332869 -0.205737,2 -1.151162,12.530963 1.036422,24.087546 6.0625,33.96875 L 43.125,110 c 1.011403,1.81678 2.191241,3.52297 3.4375,5.1875 1.244725,1.66248 1.685716,2.58262 2.46875,3.6875 C 62.319911,133.81083 82.129473,141 105,141 155.64836,141 198.63299,118.56201 217.65625,68.15625 231.15302,69.54122 244.09968,66.080358 250,54.5625 240.60137,49.138835 228.52163,50.877226 221.5625,54.375 L 240,2 168,48 H 145 V 2 Z"
     id="path855" /></clipPath><clipPath
   id="clipPath861"><path
     inkscape:connector-curvature="0"
     d="M 76,2 V 48 H 54 V 71 H 35.580737 c -0.07818,0.665694 -0.141485,1.332869 -0.205737,2 -1.151162,12.530963 1.036422,24.087546 6.0625,33.96875 L 43.125,110 c 1.011403,1.81678 2.191241,3.52297 3.4375,5.1875 1.244725,1.66248 1.685716,2.58262 2.46875,3.6875 C 62.319911,133.81083 82.129473,141 105,141 155.64836,141 198.63299,118.56201 217.65625,68.15625 231.15302,69.54122 244.09968,66.080358 250,54.5625 240.60137,49.138835 228.52163,50.877226 221.5625,54.375 L 240,2 168,48 H 145 V 2 Z"
     id="path859" /></clipPath><clipPath
   id="clipPath865"><path
     inkscape:connector-curvature="0"
     d="M 76,2 V 48 H 54 V 71 H 35.580737 c -0.07818,0.665694 -0.141485,1.332869 -0.205737,2 -1.151162,12.530963 1.036422,24.087546 6.0625,33.96875 L 43.125,110 c 1.011403,1.81678 2.191241,3.52297 3.4375,5.1875 1.244725,1.66248 1.685716,2.58262 2.46875,3.6875 C 62.319911,133.81083 82.129473,141 105,141 155.64836,141 198.63299,118.56201 217.65625,68.15625 231.15302,69.54122 244.09968,66.080358 250,54.5625 240.60137,49.138835 228.52163,50.877226 221.5625,54.375 L 240,2 168,48 H 145 V 2 Z"
     id="path863" /></clipPath><clipPath
   id="clipPath869"><path
     inkscape:connector-curvature="0"
     d="M 76,2 V 48 H 54 V 71 H 35.580737 c -0.07818,0.665694 -0.141485,1.332869 -0.205737,2 -1.151162,12.530963 1.036422,24.087546 6.0625,33.96875 L 43.125,110 c 1.011403,1.81678 2.191241,3.52297 3.4375,5.1875 1.244725,1.66248 1.685716,2.58262 2.46875,3.6875 C 62.319911,133.81083 82.129473,141 105,141 155.64836,141 198.63299,118.56201 217.65625,68.15625 231.15302,69.54122 244.09968,66.080358 250,54.5625 240.60137,49.138835 228.52163,50.877226 221.5625,54.375 L 240,2 168,48 H 145 V 2 Z"
     id="path867" /></clipPath></defs>
<style
   id="style1382"
   type="text/css">
	.st0{fill:#465D63;}
	.st1{fill:#EE7914;}
	.st2{fill:#3C4E52;}
	.st3{clip-path:url(#SVGID_2_);}
	.st4{fill:#5EAAAA;}
	.st5{fill:#EFA21B;}
	.st6{fill:#EDB890;}
	.st7{fill:#E2AB86;}
	.st8{fill:#9A593D;}
	.st9{fill:#D89D75;}
	.st10{fill:#FFFFFF;}
	.st11{fill:#E5E1D8;}
	.st12{fill:#D6D2C9;}
	.st13{fill:#AF3922;}
	.st14{fill:#FFC248;}
	.st15{fill:#D55434;}
	.st16{fill:#582A2C;}
	.st17{fill:#FFBC00;}
	.st18{fill:#FFDC83;}
	.st19{fill:#AD6B53;}
</style>





<g
   id="g846"
   transform="matrix(6.2154231,0,0,6.2154231,548.16269,-4630.7757)"><path
     style="fill:#ee7914;stroke-width:0.50872093"
     id="path1412"
     d="m 10.225291,757.78508 c 0.559593,1.72965 0.203488,3.00145 -0.6104654,4.47675 -1.5770349,-0.71221 -2.6962209,-1.42442 -3.255814,-3.15407 -0.559593,-1.72966 -0.5087209,-4.12064 0.3561047,-5.64681 1.5261628,0.71221 2.8997093,2.59448 3.5101747,4.32413 z"
     class="st1"
     inkscape:connector-curvature="0" /><path
     style="fill:#ee7914;stroke-width:0.50872093"
     id="path1414"
     d="m 5.1889535,760.88828 c 1.8313953,0 2.8997093,0.71221 4.0697674,1.98401 -1.119186,1.2718 -2.1875,2.13663 -4.0188953,2.13663 -1.8313954,0 -4.0697675,-0.81396 -5.2398256,-2.08576 1.119186,-1.2718 3.3575581,-2.03488 5.1889535,-2.03488 z"
     class="st1"
     inkscape:connector-curvature="0" /><path
     style="fill:#ee7914;stroke-width:0.50872093"
     id="path1416"
     d="m 6.5625,766.63683 c 0.559593,-1.72966 1.5770349,-2.54361 3.1031977,-3.25582 0.8648253,1.47529 1.3226743,2.74709 0.7630813,4.47675 -0.559593,1.72965 -2.0348837,3.66279 -3.5610464,4.375 C 6.0537791,770.75746 6.002907,768.41735 6.5625,766.63683 Z"
     class="st1"
     inkscape:connector-curvature="0" /><path
     style="fill:#ee7914;stroke-width:0.50872093"
     id="path1418"
     d="m 12.463663,767.09467 c -1.475291,-1.06831 -1.93314,-2.28924 -2.136628,-3.96802 1.678779,-0.3561 3.001453,-0.40698 4.527616,0.66134 1.475291,1.06831 2.848837,3.05232 3.052326,4.7311 -1.678779,0.35611 -3.968024,-0.3561 -5.443314,-1.42442 z"
     class="st1"
     inkscape:connector-curvature="0" /><path
     style="fill:#ee7914;stroke-width:0.50872093"
     id="path1424"
     d="m 25.385174,749.84903 c 0.254361,1.8314 -0.356104,2.95059 -1.424418,4.27326 -1.424419,-0.96657 -2.390989,-1.88227 -2.645349,-3.71366 -0.25436,-1.8314 0.305233,-4.17151 1.373546,-5.44332 1.424419,0.9157 2.441861,3.05233 2.696221,4.88372 z"
     class="st1"
     inkscape:connector-curvature="0" /><path
     style="fill:#ee7914;stroke-width:0.50872093"
     id="path1426"
     d="m 19.840116,751.93479 c 1.780524,0.30523 2.696221,1.22093 3.611919,2.69622 -1.373547,1.01744 -2.543605,1.67878 -4.375,1.32268 -1.831395,-0.30524 -3.866279,-1.57704 -4.781977,-3.00146 1.424419,-1.01744 3.764535,-1.32267 5.545058,-1.01744 z"
     class="st1"
     inkscape:connector-curvature="0" /><path
     style="fill:#ee7914;stroke-width:0.50872093"
     id="path1428"
     d="m 20.145349,757.83595 c 0.864825,-1.6279 2.034884,-2.1875 3.662791,-2.59447 0.559593,1.6279 0.813953,2.95058 -0.05087,4.57848 -0.864825,1.62791 -2.69622,3.20495 -4.324127,3.61192 -0.559593,-1.6279 -0.152617,-3.96802 0.712209,-5.59593 z"
     class="st1"
     inkscape:connector-curvature="0" /><path
     style="fill:#ee7914;stroke-width:0.50872093"
     id="path1430"
     d="m 25.843023,759.36212 c -1.271802,-1.32268 -1.47529,-2.59448 -1.373546,-4.32413 1.678779,-0.0509 3.052325,0.15261 4.324128,1.47529 1.271802,1.32267 2.1875,3.56105 2.085755,5.23982 -1.678779,0.10175 -3.764534,-1.01744 -5.036337,-2.39098 z"
     class="st1"
     inkscape:connector-curvature="0" /><path
     style="fill:#ee7914;stroke-width:0.50872093"
     id="path1432"
     d="m 29.098837,754.42752 c -1.678779,0.81396 -2.950581,0.61047 -4.527616,-0.0509 0.508721,-1.6279 1.068314,-2.84883 2.747093,-3.66279 1.678779,-0.81395 4.069767,-1.01744 5.646802,-0.3561 -0.508721,1.6279 -2.238372,3.25581 -3.866279,4.06976 z"
     class="st1"
     inkscape:connector-curvature="0" /><path
     style="fill:#ee7914;stroke-width:0.50872093"
     id="path1436"
     d="m 28.844477,767.50165 c -0.763082,1.67878 -1.831396,2.34012 -3.459303,2.89971 -0.661337,-1.57703 -1.017441,-2.84884 -0.305232,-4.52762 0.763081,-1.67878 2.44186,-3.40843 4.069767,-3.91715 0.661338,1.52617 0.457849,3.86628 -0.305232,5.54506 z"
     class="st1"
     inkscape:connector-curvature="0" /><path
     style="fill:#ee7914;stroke-width:0.50872093"
     id="path1438"
     d="m 23.045058,766.38246 c 1.373547,1.22093 1.678779,2.49274 1.678779,4.17152 -1.678779,0.15261 -3.052325,0.10174 -4.425872,-1.11919 -1.373546,-1.22093 -2.492732,-3.35756 -2.492732,-5.03634 1.678779,-0.20349 3.866279,0.76308 5.239825,1.98401 z"
     class="st1"
     inkscape:connector-curvature="0" /><path
     style="fill:#ee7914;stroke-width:0.50872093"
     id="path1440"
     d="m 20.196221,771.57142 c 1.577035,-0.9157 2.899709,-0.81396 4.476744,-0.30523 -0.356105,1.67877 -0.864825,2.95058 -2.44186,3.86627 -1.577035,0.9157 -3.968024,1.32268 -5.595931,0.81396 0.406977,-1.67878 1.984012,-3.4593 3.561047,-4.375 z"
     class="st1"
     inkscape:connector-curvature="0" /><path
     style="fill:#ee7914;stroke-width:0.50872093"
     id="path1444"
     d="m 29.607558,773.35194 c -1.831395,-0.20349 -2.797965,-1.01744 -3.815407,-2.39099 1.271802,-1.11918 2.390989,-1.88226 4.222384,-1.67878 1.831395,0.20349 3.968023,1.27181 4.985465,2.64535 -1.271802,1.11919 -3.561047,1.62791 -5.392442,1.42442 z"
     class="st1"
     inkscape:connector-curvature="0" /><g
     id="g1452"
     transform="matrix(0.50872093,0,0,0.50872093,-614.22965,551.54961)"><path
       inkscape:connector-curvature="0"
       style="fill:#ee7914"
       id="path1450"
       d="m 1243.8,476 c -0.1,0 -0.3,0 -0.5,0 -2,-0.2 -3,-1.2 -3.5,-2.1 -1.7,-3.1 0.2,-9.3 3.3,-16.2 -1.2,-3.3 -2.7,-7.2 -4.8,-11.8 -0.3,-0.7 -0.5,-1.2 -0.6,-1.5 -2.7,-6.4 -5.5,-12.6 -8.3,-18.6 -0.2,-0.4 0,-1 0.4,-1.2 0.4,-0.2 1,0 1.2,0.4 2.9,6 5.7,12.3 8.4,18.7 0.1,0.3 0.3,0.8 0.6,1.4 1.4,3.2 2.9,6.7 4.2,10.2 1.9,-3.9 4.1,-8 6.2,-11.7 0.4,-0.8 0.8,-1.4 1,-1.8 0.2,-0.4 0.8,-0.6 1.2,-0.4 0.4,0.2 0.6,0.8 0.4,1.2 -0.2,0.4 -0.6,1 -1,1.8 -2.9,5.1 -5.2,9.5 -6.9,13.3 2.5,7.1 3.9,13.8 1.9,16.7 -0.5,0.8 -1.5,1.6 -3.2,1.6 z m 0.2,-15.8 c -2.8,6.5 -3.7,10.8 -2.6,12.8 0.4,0.7 1,1.1 2,1.2 1.3,0.1 1.8,-0.4 2.1,-0.8 1,-1.3 1.2,-4.8 -1.5,-13.2 z"
       class="st1" /></g><path
     style="fill:#ee7914;stroke-width:0.50872093"
     id="path1430-3"
     d="m 24.55952,775.99984 c -0.610617,-1.73036 -0.269622,-2.9724 0.538634,-4.50495 1.549361,0.64828 2.715654,1.40185 3.326221,3.13221 0.610618,1.73038 0.518081,4.14703 -0.269113,5.63329 -1.570473,-0.60199 -3.006236,-2.48388 -3.595742,-4.26055 z"
     class="st1"
     inkscape:connector-curvature="0" /><path
     style="fill:#ee7914;stroke-width:0.50872093"
     id="path1432-6"
     d="m 14.680974,761.41262 c -1.452653,1.17079 -2.737631,1.25865 -4.423023,0.96907 0.129367,-1.70062 0.400007,-3.01615 1.852609,-4.18694 1.452601,-1.17078 3.736555,-1.90698 5.421896,-1.61741 -0.129316,1.70063 -1.44843,3.67594 -2.851482,4.83528 z"
     class="st1"
     inkscape:connector-curvature="0" /></g><g
   id="g993"
   transform="matrix(1.3406529,0,0,1.3406529,93.379765,156.82277)"><path
     style="fill:#394d54"
     id="path14"
     d="m 92.75324,-11.414713 h 22.866 v 23.374728 h 11.56177 c 5.33905,0 10.83073,-0.95117 15.88699,-2.6644402 2.48448,-0.84244 5.27317,-2.01479 7.72392,-3.4892 -3.22785,-4.214359 -4.87579,-9.535739 -5.36101,-14.781059 -0.65874,-7.1342588 0.78032,-16.4204178 5.60897,-22.0042138 l 2.40362,-2.780117 2.8642,2.302393 c 7.21138,5.79374 13.27612,13.889339 14.3451,23.1181878 8.68312,-2.5541098 18.87759,-1.9499998 26.53135,2.46735 l 3.14002,1.81182 -1.65276,3.2257 C 192.19852,11.799809 178.6664,15.71318 165.43634,15.020695 c -19.79715,49.30838 -62.8978,72.65258 -115.15714,72.65258 -26.998895,0 -51.7698389,-10.09272 -65.875545,-34.04693 -0.827018,-1.48798 -1.535233,-3.0439 -2.286326,-4.57212 -4.768133,-10.544195 -6.351798,-22.095254 -5.277455,-33.636674 l 0.32241,-3.457071 H -3.2847809 V -11.414248 H 19.581217 V -34.280247 H 65.31321 v -22.865998 h 27.43967 v 45.731997"
     inkscape:connector-curvature="0" /><g
     id="g16"
     clip-path="url(#clipPath8)"
     transform="translate(-54.73435,-57.14671)"><g
       id="g18"><g
         id="g20"
         transform="translate(0,-22.866)"><path
           inkscape:connector-curvature="0"
           style="fill:#00acd3"
           id="path22"
           d="m 123.85901,3.8110794 h 19.81751 V 23.62805 h -19.81751 z" /><path
           inkscape:connector-curvature="0"
           style="fill:#20c2ef"
           id="path24"
           d="m 123.85901,26.676485 h 19.81751 v 19.818043 h -19.81751 z" /><path
           inkscape:connector-curvature="0"
           style="stroke:#394d54;stroke-width:1.55999994"
           id="path26"
           d="M 126.29235,21.976904 V 5.4611548 M 129.2642,21.976904 V 5.4611548 m 3.00184,16.5157492 V 5.4611548 m 3.00344,16.5157492 V 5.4611548 M 138.2724,21.976904 V 5.4611548 m 2.97131,16.5157492 V 5.4611548" /><use
           height="100%"
           width="100%"
           y="0"
           x="0"
           xlink:href="#path26"
           id="use28"
           transform="translate(0,22.866)" /></g><use
         height="100%"
         width="100%"
         y="0"
         x="0"
         xlink:href="#g20"
         id="use30"
         transform="matrix(1,0,0,-1,22.866,4.572651)" /></g><use
       height="100%"
       width="100%"
       y="0"
       x="0"
       xlink:href="#g18"
       id="use32"
       transform="translate(-91.464,45.732)" /><use
       height="100%"
       width="100%"
       y="0"
       x="0"
       xlink:href="#g18"
       id="use34"
       transform="translate(-45.732,45.732)" /><use
       height="100%"
       width="100%"
       y="0"
       x="0"
       xlink:href="#g18"
       id="use36"
       transform="translate(0,45.732)" /></g><path
     style="fill:#17b5eb"
     id="path38"
     clip-path="url(#clipPath8)"
     d="m 221.57014,54.379649 c 1.53332,-11.915247 -7.38383,-21.274779 -12.91407,-25.71836 -6.37269,7.367765 -7.36295,26.677556 2.63498,34.807431 -5.57952,4.956117 -17.33731,9.448435 -29.37574,9.448435 L 34,72.917155 C 32.829255,85.484184 34,146 34,146 h 217 l -0.98657,-91.424 c -9.39863,-5.423665 -21.48419,-3.694326 -28.44332,-0.196552"
     inkscape:connector-curvature="0"
     transform="translate(-54.73435,-57.14671)" /><path
     style="fill-opacity:0.17000002"
     id="path40"
     clip-path="url(#clipPath8)"
     d="m 34,89 v 57 H 251 V 89"
     inkscape:connector-curvature="0"
     transform="translate(-54.73435,-57.14671)" /><path
     style="fill:#d4edf1"
     id="path42"
     clip-path="url(#clipPath8)"
     d="M 111.23736,140.88997 C 97.697741,134.4648 90.265707,125.73081 86.130611,116.19562 L 45,118 l 21,28 45.23736,-5.11003"
     inkscape:connector-curvature="0"
     transform="translate(-54.73435,-57.14671)" /><path
     style="fill-opacity:0.08500001"
     id="path44"
     clip-path="url(#clipPath8)"
     d="m 222.5,53.9375 v 0.03125 c -20.86119,26.889144 -50.78312,50.37872 -82.90625,62.71875 -28.65478,11.00767 -53.638381,11.06039 -70.875,2.21875 -1.85607,-1.04832 -3.675701,-2.21152 -5.5,-3.3125 C 50.582097,106.76175 43.464274,92.152308 44.0625,72.90625 H 34 V 146 H 251 V 50 h -25 z"
     inkscape:connector-curvature="0"
     transform="translate(-54.73435,-57.14671)" /><path
     style="fill:none;stroke:#394d54;stroke-width:3.4000001;stroke-linecap:round"
     id="path46"
     d="m -9.1093529,59.884525 c 14.165151,0.77531 29.2824469,0.91433 42.4687459,-3.21875"
     inkscape:connector-curvature="0" /><path
     style="fill:#d4edf1"
     id="path48"
     d="m 47.43588,49.812535 c 0,3.01898 -2.447527,5.46651 -5.466505,5.46651 -3.019514,0 -5.467581,-2.44753 -5.467581,-5.46651 0,-3.01897 2.448067,-5.46758 5.467581,-5.46758 3.018978,0 5.466505,2.44861 5.466505,5.46758 z"
     inkscape:connector-curvature="0" /><path
     style="fill:#394d54"
     id="path50"
     d="m 43.387014,46.161055 c -0.477187,0.27582 -0.800132,0.79264 -0.800132,1.3839 0,0.88261 0.715513,1.59706 1.598124,1.59706 0.604653,0 1.130044,-0.3358 1.401574,-0.83174 0.19173,0.4622 0.29831,0.96991 0.29831,1.50226 0,2.16208 -1.752905,3.91498 -3.915515,3.91498 -2.162075,0 -3.91605,-1.7529 -3.91605,-3.91498 0,-2.16314 1.753975,-3.91658 3.91605,-3.91658 0.500218,0 0.977406,0.0943 1.417639,0.2651 z"
     inkscape:connector-curvature="0" /><path
     style="fill:#394d54"
     id="path52"
     d="m -54.73435,33.015626 h 254.32741 c -5.53774,-1.404786 -17.521,-3.302293 -15.54477,-10.559731 -10.06915,11.651748 -34.35274,8.174325 -40.4812,2.428786 -6.8247,9.898309 -46.5545,6.135966 -49.32552,-1.575096 -8.55565,10.040769 -35.06718,10.040769 -43.62336,0 -2.77209,7.711062 -42.5013519,11.473405 -49.3265889,1.575096 -6.128469,5.745539 -30.4099061,9.222962 -40.4801311,-2.428786 1.976234,7.257438 -10.007029,9.154945 -15.54584,10.559731"
     inkscape:connector-curvature="0" /></g>
</svg>