<?xml version="1.0" encoding="UTF-8" standalone="no"?>
<svg
   xmlns:dc="http://purl.org/dc/elements/1.1/"
   xmlns:cc="http://creativecommons.org/ns#"
   xmlns:rdf="http://www.w3.org/1999/02/22-rdf-syntax-ns#"
   xmlns:svg="http://www.w3.org/2000/svg"
   xmlns="http://www.w3.org/2000/svg"
   xmlns:sodipodi="http://sodipodi.sourceforge.net/DTD/sodipodi-0.dtd"
   xmlns:inkscape="http://www.inkscape.org/namespaces/inkscape"
   viewBox="0 0 190.4 72.621057"
   version="1.1"
   id="svg16"
   sodipodi:docname="logo_peaks.svg"
   width="190.40001"
   height="72.621056"
   inkscape:version="0.92.3 (2405546, 2018-03-11)">
  <metadata
     id="metadata22">
    <rdf:RDF>
      <cc:Work
         rdf:about="">
        <dc:format>image/svg+xml</dc:format>
        <dc:type
           rdf:resource="http://purl.org/dc/dcmitype/StillImage" />
        <dc:title>logo_peaks</dc:title>
      </cc:Work>
    </rdf:RDF>
  </metadata>
  <defs
     id="defs20" />
  <sodipodi:namedview
     pagecolor="#ffffff"
     bordercolor="#666666"
     borderopacity="1"
     objecttolerance="10"
     gridtolerance="10"
     guidetolerance="10"
     inkscape:pageopacity="0"
     inkscape:pageshadow="2"
     inkscape:window-width="1918"
     inkscape:window-height="586"
     id="namedview18"
     showgrid="false"
     fit-margin-left="-0.4"
     scale-x="0.8"
     inkscape:zoom="1.8508026"
     inkscape:cx="-72.769644"
     inkscape:cy="53.945057"
     inkscape:window-x="0"
     inkscape:window-y="612"
     inkscape:window-maximized="0"
     inkscape:current-layer="svg16"
     fit-margin-top="0"
     fit-margin-right="0"
     fit-margin-bottom="20" />
  <title
     id="title2">logo_peaks</title>
  <g
     id="Calque_2"
     data-name="Calque 2"
     transform="matrix(0.90074583,0,0,0.90074583,-0.4,0.01098044)"
     style="stroke-width:1.11019111">
    <g
       id="Calque_1-2"
       data-name="Calque 1"
       style="stroke-width:1.11019111">
      <polygon
         points="43.3,79.7 43.3,1 77.1,1 77.1,12.9 55.2,12.9 55.2,34.4 71.2,34.4 71.2,46.3 55.2,46.3 55.2,67.7 77.1,67.7 77.1,79.7 "
         id="polygon4"
         style="fill:#e94d97;stroke-width:1.11019111" />
      <polygon
         points="143.9,54.7 143.9,79.7 132.1,79.7 132.1,0.9 143.9,0.9 143.9,29 158.4,0.9 171.1,0.9 154.8,33 173.9,79.7 159.9,79.7 147.5,47.7 "
         id="polygon6"
         style="fill:#e94d97;stroke-width:1.11019111" />
      <path
         d="m 211.8,60.1 a 22,22 0 0 1 -4.2,14 15.6,15.6 0 0 1 -8.2,5.6 21.9,21.9 0 0 1 -6.6,0.9 18.5,18.5 0 0 1 -17.6,-11.1 32.3,32.3 0 0 1 -2.6,-11.2 l 11.3,-0.8 c 0.5,4.6 1.7,7.9 3.6,10 a 6.4,6.4 0 0 0 4.9,2.2 7.6,7.6 0 0 0 6.3,-3.9 10.3,10.3 0 0 0 1.1,-5.2 c 0,-3.2 -1.4,-6.5 -4.4,-9.7 l -10.6,-10 a 44.7,44.7 0 0 1 -8.3,-10.2 23.3,23.3 0 0 1 -2.6,-11.1 c 0,-7.2 2.4,-12.6 7.2,-16.3 a 17.8,17.8 0 0 1 11,-3.3 20.1,20.1 0 0 1 10.9,2.8 17.1,17.1 0 0 1 5.7,6.2 23.1,23.1 0 0 1 2.6,9.1 l -11.4,2 a 12.8,12.8 0 0 0 -2.8,-7.5 5.6,5.6 0 0 0 -4.7,-1.9 5.3,5.3 0 0 0 -4.9,2.9 10.9,10.9 0 0 0 -1.4,5.7 c 0,3.6 1.5,7.3 4.6,11 a 44.7,44.7 0 0 0 5.3,5 c 2.8,2.3 4.6,4 5.5,4.9 a 41.9,41.9 0 0 1 6.8,8.6 l 1.8,3.7 a 21.5,21.5 0 0 1 1.7,7.6"
         id="path8"
         inkscape:connector-curvature="0"
         style="fill:#e94d97;stroke-width:1.11019111" />
      <path
         d="M 25.8,20 A 6.5,6.5 0 0 0 19,13.1 H 11.9 V 38.3 H 19 a 6.6,6.6 0 0 0 4.8,-2 6.7,6.7 0 0 0 2,-4.8 z M 18.7,1 c 5.8,0 10.4,1.8 13.8,5.5 a 18.9,18.9 0 0 1 4.8,13.3 V 31.2 A 18.3,18.3 0 0 1 31.9,44.5 17.8,17.8 0 0 1 18.7,50 H 11.9 V 79.7 H 0 V 1 Z"
         id="path10"
         inkscape:connector-curvature="0"
         style="fill:#e94d97;stroke-width:1.11019111" />
      <path
         d="M 114.6,79.7 H 127 L 112.9,1 H 96.5 L 82.2,79.5 82,79.7 Z m -10.4,-12.6 -9.3,5.3 9.7,-53.4 8.7,53.3 z"
         id="path12"
         inkscape:connector-curvature="0"
         style="fill:#e94d97;stroke-width:1.11019111" />
    </g>
  </g>
</svg>
